<svg width="64" height="64" viewBox="0 0 64 64" fill="none" xmlns="http://www.w3.org/2000/svg">
<path fill-rule="evenodd" clip-rule="evenodd" d="M32 64C49.6731 64 64 49.6731 64 32C64 14.3269 49.6731 0 32 0C14.3269 0 0 14.3269 0 32C0 49.6731 14.3269 64 32 64ZM23.75 45.8375C23.75 46.4795 24.2705 47 24.9125 47C25.5545 47 26.075 46.4795 26.075 45.8375V38.475H36.15V45.8375C36.15 46.4795 36.6705 47 37.3125 47C37.9545 47 38.475 46.4795 38.475 45.8375V38.475H45.8375C46.4795 38.475 47 37.9545 47 37.3125C47 36.6705 46.4795 36.15 45.8375 36.15H38.475V26.075H45.8375C46.4795 26.075 47 25.5545 47 24.9125C47 24.2705 46.4795 23.75 45.8375 23.75H38.475V17.1625C38.475 16.5205 37.9545 16 37.3125 16C36.6705 16 36.15 16.5205 36.15 17.1625V23.75H26.075V17.1625C26.075 16.5205 25.5545 16 24.9125 16C24.2705 16 23.75 16.5205 23.75 17.1625V23.75H17.1625C16.5205 23.75 16 24.2705 16 24.9125C16 25.5545 16.5205 26.075 17.1625 26.075H23.75V36.15H17.1625C16.5205 36.15 16 36.6705 16 37.3125C16 37.9545 16.5205 38.475 17.1625 38.475H23.75V45.8375ZM26.075 36.15H36.15V26.075H26.075L26.075 36.15Z" fill="#91E9D4"/>
</svg>
