<svg width="43" height="42" viewBox="0 0 43 42" fill="none" xmlns="http://www.w3.org/2000/svg">
<path fill-rule="evenodd" clip-rule="evenodd" d="M32.3534 6.70828C33.6756 5.85411 34.2728 5.04265 34.1022 4.44473C31.3298 2.43744 28.0456 1.15619 24.5908 0.686401C27.022 1.7114 29.837 3.59057 32.3534 6.70828" fill="white"/>
<path fill-rule="evenodd" clip-rule="evenodd" d="M26.5526 21.9124C30.6472 20.9301 33.7181 19.9051 36.0213 18.8801C35.1256 14.7801 33.6328 11.492 31.8841 8.84363C30.05 9.95404 27.4483 10.979 24.0361 11.8332C24.9318 14.652 25.6996 17.5988 26.2114 20.1186C26.3393 20.7165 26.4246 21.3149 26.5526 21.9124" fill="white"/>
<path fill-rule="evenodd" clip-rule="evenodd" d="M36.3622 20.9302C33.206 22.425 29.538 23.5358 26.8936 24.1764C27.3627 27.4646 27.7039 31.0098 27.6613 34.0843C30.8602 33.2729 33.5472 32.2052 35.7225 31.0948C36.6182 28.3614 36.9594 24.9875 36.3622 20.9302Z" fill="white"/>
<path fill-rule="evenodd" clip-rule="evenodd" d="M11.4966 22.9375C11.5819 23.2792 11.6672 23.6208 11.7098 23.9625C15.3352 23.8344 19.6004 23.4073 24.1642 22.4677C24.0362 21.8698 23.9509 21.2719 23.8229 20.6312C23.1832 17.5135 22.5007 14.7375 21.7757 12.3458C18.2782 13.0292 14.0983 13.2427 10.6009 12.9865C10.5582 15.976 10.7715 19.35 11.4966 22.9375" fill="white"/>
<path fill-rule="evenodd" clip-rule="evenodd" d="M42.1204 16.7448V16.7448C41.31 17.9833 39.7746 19.1364 37.8979 20.1187C38.495 24.0052 38.1964 27.3791 37.4287 30.1552C39.5186 28.9166 40.8835 27.7208 41.5233 26.9093C42.5896 23.7489 42.8455 20.2895 42.1204 16.7448" fill="white"/>
<path fill-rule="evenodd" clip-rule="evenodd" d="M35.1684 5.25635C34.9977 6.11051 34.358 7.00739 33.249 7.90426C35.083 10.5095 36.6185 13.8834 37.5142 18.197C39.9027 16.9584 41.1823 15.848 41.6941 15.0793C40.5425 11.1074 38.1966 7.73343 35.1684 5.25635" fill="white"/>
<path fill-rule="evenodd" clip-rule="evenodd" d="M10.729 11.2782C13.7146 11.3636 17.3827 11.1501 21.2213 10.4241C19.3873 4.74386 17.5533 1.54073 16.7003 1.11365C15.2927 1.45531 13.9705 1.92511 12.691 2.52302C11.8806 3.97511 10.9849 7.13552 10.729 11.2782" fill="white"/>
<path fill-rule="evenodd" clip-rule="evenodd" d="M14.7382 37.2874C11.4967 37.0738 8.72431 36.5186 6.97559 35.7499C10.0465 38.6118 13.9705 40.5336 18.2357 41.1743C17.0841 40.3201 15.8898 38.953 14.7382 37.2874" fill="white"/>
<path fill-rule="evenodd" clip-rule="evenodd" d="M24.5907 24.6884C22.6714 24.9873 17.4678 25.7561 12.2217 25.9269C13.288 29.6852 14.6955 32.9738 16.1456 35.579C19.046 35.5363 22.3301 35.2373 25.6143 34.5967C25.5717 31.9488 25.2305 28.6175 24.5907 24.6884" fill="white"/>
<path fill-rule="evenodd" clip-rule="evenodd" d="M34.7416 33.7001C32.7369 34.6824 30.3484 35.5788 27.5761 36.2626C27.4481 38.1413 27.1069 39.7647 26.5098 40.7897C27.9599 40.448 29.3248 39.9355 30.647 39.2949C32.0545 38.0136 33.59 36.1344 34.7416 33.7001" fill="white"/>
<path fill-rule="evenodd" clip-rule="evenodd" d="M25.6568 36.6467C22.7991 37.2024 19.9415 37.4159 17.2544 37.4159C18.4486 39.2946 19.6429 40.704 20.4959 41.4301C21.9887 41.4732 23.5242 41.3878 25.0597 41.1311C25.4009 40.4905 25.6141 38.953 25.6568 36.6467" fill="white"/>
<path fill-rule="evenodd" clip-rule="evenodd" d="M23.3966 9.95417C26.6381 9.22812 29.1119 8.33125 30.9033 7.47708C27.875 3.63333 24.4202 1.45521 22.117 0.515625C20.7522 0.515625 19.3873 0.601042 18.0225 0.857292C19.9844 2.01042 21.8611 5.68333 23.3966 9.95417" fill="white"/>
<path fill-rule="evenodd" clip-rule="evenodd" d="M36.5758 32.7179C35.7654 34.6397 34.7418 36.2627 33.6328 37.5862C36.4905 35.5789 38.7937 32.9314 40.3291 29.8987C39.3481 30.8387 38.1112 31.8206 36.5758 32.7179" fill="white"/>
<path fill-rule="evenodd" clip-rule="evenodd" d="M9.02276 23.4927C8.25503 19.6917 8.08442 16.0187 8.38298 12.7729C5.99449 12.4312 4.16046 11.876 3.35008 11.0646C1.30279 14.6094 0.27915 18.7094 0.663016 22.9802C1.4734 23.45 4.58698 23.9629 9.15071 24.0052C9.10806 23.8344 9.06541 23.6635 9.02276 23.4927" fill="white"/>
<path fill-rule="evenodd" clip-rule="evenodd" d="M4.20313 9.74063C4.37373 10.3813 6.03715 10.8938 8.5536 11.15C8.98012 7.86147 9.87581 5.17084 10.9848 3.4198C8.25504 5.04272 5.95185 7.22084 4.20313 9.74063" fill="white"/>
<path fill-rule="evenodd" clip-rule="evenodd" d="M9.6199 25.9271C6.20776 25.8844 3.00888 25.5427 0.918945 24.5604C0.961597 24.774 1.00425 24.9448 1.00425 25.1583C1.72933 28.7031 3.3501 31.8208 5.61064 34.3833C6.54898 34.8958 9.57725 35.451 13.6292 35.5792C12.0084 32.9313 10.6009 29.6427 9.6199 25.9271" fill="white"/>
</svg>
