<?xml version="1.0" standalone="no"?>
<!DOCTYPE svg PUBLIC "-//W3C//DTD SVG 1.1//EN" "http://www.w3.org/Graphics/SVG/1.1/DTD/svg11.dtd" >
<svg>
<metadata>
Created by FontForge 20120731 at Mon Oct 13 16:12:08 2014
 By Orthosie Webhosting
Copyright  2004, Joshua Darden &#38; Phil's Fonts, Inc. All rights reserved. Published by Garagefonts USA 301-260-2285 www.garagefonts.com
</metadata>
<defs>
<font id="FreightSansLightRegular" horiz-adv-x="400" >
  <font-face 
    font-family="FreightSansLightRegular"
    font-weight="400"
    font-stretch="normal"
    units-per-em="1000"
    panose-1="2 0 6 6 3 0 0 2 0 4"
    ascent="800"
    descent="-200"
    x-height="458"
    cap-height="625"
    bbox="-75 -258 1100 859"
    underline-thickness="20"
    underline-position="-113"
    unicode-range="U+0020-FB04"
  />
<missing-glyph horiz-adv-x="500" 
 />
    <glyph glyph-name=".notdef" horiz-adv-x="500" 
 />
    <glyph glyph-name=".null" horiz-adv-x="0" 
 />
    <glyph glyph-name="nonmarkingreturn" horiz-adv-x="124" 
 />
    <glyph glyph-name="space" unicode=" " horiz-adv-x="124" 
 />
    <glyph glyph-name="exclam" unicode="!" horiz-adv-x="245" 
d="M98 647h50l-13 -470h-23zM158 28q0 -15 -10 -26.5t-26 -11.5t-25.5 11.5t-9.5 26.5q0 14 9.5 25t25.5 11t26 -11t10 -25z" />
    <glyph glyph-name="quotedbl" unicode="&#x22;" horiz-adv-x="302" 
d="M146 398l139 250l44 -22l-150 -228h-33zM-1 398l139 250l44 -22l-150 -228h-33z" />
    <glyph glyph-name="numbersign" unicode="#" horiz-adv-x="566" 
d="M41 376v34h136l62 232h36l-62 -232h183l62 232h36l-62 -232h92v-34h-102l-45 -170h127v-34h-137l-65 -246h-36l66 246h-184l-66 -246h-35l66 246h-92v34h101l46 170h-127zM203 376l-46 -170h184l46 170h-184z" />
    <glyph glyph-name="dollar" unicode="$" horiz-adv-x="476" 
d="M221 27h10q36 0 65.5 10.5t50.5 28.5t32.5 41.5t11.5 49.5q0 28 -10 49t-27.5 37t-42 28.5t-54.5 22.5zM283 730h37l-14 -102q33 -6 61.5 -17.5t51.5 -27.5l-16 -37q-47 33 -102 45l-35 -257q32 -11 61.5 -25t52 -34t36.5 -47.5t14 -66.5q0 -36 -14.5 -67.5t-41 -54.5
t-63.5 -36t-82 -13h-13l-15 -113h-37l16 116q-42 6 -77 19.5t-65 33.5l16 36q28 -19 60.5 -32.5t70.5 -19.5l38 276q-33 11 -64 24t-55 32t-38.5 45.5t-14.5 65.5q0 35 14 64.5t39.5 51t60 34t75.5 12.5h15t15 -1zM265 597q-6 0 -12.5 0.5t-12.5 0.5q-37 0 -64.5 -10
t-46.5 -27t-28.5 -39t-9.5 -45q0 -27 10 -47t28.5 -35t44.5 -27t57 -23z" />
    <glyph glyph-name="percent" unicode="%" horiz-adv-x="746" 
d="M349 482q0 -33 -11.5 -63t-33 -52.5t-52 -36t-69.5 -13.5q-38 0 -69 13.5t-52.5 36t-33 52.5t-11.5 63q0 34 11.5 64.5t33 53t52.5 36t69 13.5q39 0 69.5 -13.5t52 -36t33 -53t11.5 -64.5zM139 -15h-46l516 654h45zM729 142q0 -34 -11.5 -64.5t-33 -53t-52.5 -36
t-69 -13.5q-39 0 -69.5 13.5t-52 36t-33 53t-11.5 64.5q0 33 11.5 63t33 52.5t52 36t69.5 13.5q38 0 69 -13.5t52.5 -36t33 -52.5t11.5 -63zM313 482q0 28 -9 52t-25.5 42t-41 28.5t-54.5 10.5t-54.5 -10.5t-41 -28.5t-25.5 -42t-9 -52q0 -26 9 -50t25.5 -42t41 -28.5
t54.5 -10.5t54.5 10.5t41 28.5t25.5 42t9 50zM693 142q0 26 -9 50t-25.5 42t-41 28.5t-54.5 10.5t-54.5 -10.5t-41 -28.5t-25.5 -42t-9 -50q0 -28 9 -52t25.5 -42t41 -28.5t54.5 -10.5t54.5 10.5t41 28.5t25.5 42t9 52z" />
    <glyph glyph-name="ampersand" unicode="&#x26;" horiz-adv-x="626" 
d="M243 348q60 25 92.5 58t32.5 83q0 22 -9 42t-25 35t-37.5 23.5t-46.5 8.5q-28 0 -50.5 -9t-38 -25t-24 -36t-8.5 -43q0 -26 10 -47.5t26 -38t36.5 -29.5t41.5 -22zM417 167q-50 62 -97.5 98t-96.5 55q-28 -12 -54 -28t-46 -37t-32 -46t-12 -55q0 -25 10 -48t28 -41
t44 -28.5t58 -10.5q52 0 102.5 38t95.5 103zM437 144q-42 -68 -99.5 -111t-122.5 -43q-41 0 -74 14t-56 36.5t-35.5 52.5t-12.5 61q0 35 12 62.5t33.5 50t50.5 39.5t62 30q-22 11 -41.5 25.5t-34.5 33t-23.5 40.5t-8.5 48q0 29 12.5 56.5t34.5 48.5t53 33.5t67 12.5
q33 0 61.5 -11t49 -30t32.5 -44.5t12 -55.5q0 -54 -35.5 -94.5t-98.5 -63.5q42 -21 84 -55.5t80 -81.5l117 187h51l-147 -211l133 -166l-33 -20l-123 156v0z" />
    <glyph glyph-name="quotesingle" unicode="'" horiz-adv-x="173" 
d="M-1 398l139 250l44 -22l-150 -228h-33z" />
    <glyph glyph-name="parenleft" unicode="(" horiz-adv-x="335" 
d="M327 -224q-40 21 -85 62.5t-83.5 100t-64 133t-25.5 162.5t25.5 162.5t64 133t83.5 100t85 62.5l22 -35q-39 -20 -81.5 -58.5t-77.5 -93t-58 -123t-23 -148.5t23 -148.5t58 -123t77.5 -93t81.5 -58.5l-22 -35v0z" />
    <glyph glyph-name="parenright" unicode=")" horiz-adv-x="335" 
d="M-14 -189q39 20 81.5 58.5t77.5 93t58 123t23 148.5t-23 148.5t-58 123t-77.5 93t-81.5 58.5l22 35q40 -21 85 -62.5t83.5 -100t64 -133t25.5 -162.5t-25.5 -162.5t-64 -133t-83.5 -100t-85 -62.5z" />
    <glyph glyph-name="asterisk" unicode="*" horiz-adv-x="334" 
d="M41 358l-25 35l126 81v5l-126 81l25 35l115 -101l3 1l39 147l41 -13l-60 -140l3 -3l146 13v-45l-146 13l-3 -3l60 -140l-41 -13l-39 147l-3 1z" />
    <glyph glyph-name="plus" unicode="+" horiz-adv-x="488" 
d="M265 216v-189h-40v189h-183l3 38h180v187h40v-187h178l3 -38h-181z" />
    <glyph glyph-name="comma" unicode="," horiz-adv-x="153" 
d="M32 28q0 14 11.5 27t29.5 13q23 0 40 -18t17 -49q0 -38 -27 -79t-73 -70l-19 17q42 31 58 58t16 54q0 20 -13.5 30t-39.5 17z" />
    <glyph glyph-name="hyphen" unicode="-" horiz-adv-x="274" 
d="M36 224v38h205v-38h-205z" />
    <glyph glyph-name="period" unicode="." horiz-adv-x="153" 
d="M112 28q0 -15 -10 -26.5t-26 -11.5t-25.5 11.5t-9.5 26.5q0 14 9.5 25t25.5 11t26 -11t10 -25z" />
    <glyph glyph-name="slash" unicode="/" horiz-adv-x="197" 
d="M-14 -199h-37l243 901h38z" />
    <glyph glyph-name="zero" unicode="0" horiz-adv-x="579" 
d="M529 236q0 -53 -19 -98t-51.5 -78t-76 -51.5t-93.5 -18.5q-49 0 -93 18.5t-76 51.5t-51 78t-19 98t19 98t51 78t76 51.5t93 18.5q50 0 93.5 -18.5t76 -51.5t51.5 -78t19 -98zM488 236q0 44 -15 81.5t-41 66t-62.5 44.5t-80.5 16q-43 0 -79.5 -16t-63 -44.5t-41 -66
t-14.5 -81.5q0 -43 14.5 -81t41 -66.5t63 -44.5t79.5 -16q44 0 80.5 16t62.5 44.5t41 66.5t15 81z" />
    <glyph glyph-name="one" unicode="1" horiz-adv-x="308" 
d="M164 428l-116 -51l-3 39l159 66v-482h-40v428z" />
    <glyph glyph-name="two" unicode="2" horiz-adv-x="422" 
d="M49 0v43q72 55 123.5 96t84.5 74.5t48.5 62.5t15.5 60q0 45 -31.5 76.5t-83.5 31.5q-38 0 -74.5 -17t-67.5 -42l-15 35q35 28 74.5 45t84.5 17q35 0 63.5 -10.5t49 -29.5t32 -44.5t11.5 -55.5q0 -42 -22 -78.5t-58.5 -72.5t-84.5 -73t-100 -79h288v-39h-338z" />
    <glyph glyph-name="three" unicode="3" horiz-adv-x="401" 
d="M208 163q38 0 70 -12t54.5 -33.5t35 -50.5t12.5 -63q0 -41 -16.5 -75t-44.5 -59t-65.5 -38.5t-79.5 -13.5q-41 0 -82 11t-69 28l16 37q23 -14 59.5 -26t78.5 -12q35 0 64 10.5t51 29t34 45t12 59.5q0 63 -41 99t-105 36q-22 0 -44.5 -2.5t-43.5 -7.5v31q103 26 157 70
t54 104q0 56 -35.5 85t-91.5 29q-42 0 -82.5 -18.5t-70.5 -43.5l-16 33q32 27 78.5 47t92.5 20q38 0 69 -10.5t52.5 -30t33.5 -47t12 -60.5q0 -30 -12 -56.5t-32.5 -48t-47.5 -38.5t-57 -28z" />
    <glyph glyph-name="four" unicode="4" horiz-adv-x="478" 
d="M366 21v-205h-41v205h-306l-8 36l320 431h35v-429h95l3 -38h-98zM325 419l-269 -360h269v360z" />
    <glyph glyph-name="five" unicode="5" horiz-adv-x="409" 
d="M84 201q19 7 41.5 10.5t55.5 3.5q45 0 82 -14t63.5 -39.5t40.5 -59.5t14 -75q0 -46 -16.5 -84.5t-45 -66t-68 -43t-85.5 -15.5q-37 0 -76.5 11t-69.5 28l9 40q32 -18 66.5 -29.5t73.5 -11.5q37 0 68 12t54 34t36 53.5t13 70.5q0 33 -11.5 61t-32.5 48.5t-51 32t-67 11.5
q-21 0 -37 -1.5t-29 -4t-24.5 -6t-24.5 -8.5l-18 19l38 295h281l3 -39h-250l-33 -233v0z" />
    <glyph glyph-name="six" unicode="6" horiz-adv-x="490" 
d="M46 230q0 60 20.5 123t63.5 119.5t109.5 100.5t158.5 65l11 -37q-72 -17 -127.5 -48.5t-95 -73t-63.5 -89t-33 -96.5l1 -1q36 32 81.5 54.5t96.5 22.5q34 0 66 -10.5t57 -32t40 -54.5t15 -79q0 -45 -14 -82.5t-39.5 -64.5t-62 -42t-81.5 -15q-48 0 -86 19t-64 51.5
t-40 76t-14 93.5zM87 231q0 -41 11 -78t32 -65.5t51.5 -45t69.5 -16.5q36 0 64.5 12.5t49 34.5t31 52.5t10.5 66.5q0 35 -11.5 61.5t-30.5 44.5t-44 27t-53 9q-50 0 -93.5 -19t-85.5 -61q-1 -6 -1 -11.5v-11.5z" />
    <glyph glyph-name="seven" unicode="7" horiz-adv-x="421" 
d="M20 433l3 40h374v-29l-284 -628h-42l281 617h-332z" />
    <glyph glyph-name="eight" unicode="8" horiz-adv-x="473" 
d="M256 328q23 9 44.5 21.5t38 29.5t26.5 38.5t10 48.5q0 28 -10 52t-28 42t-43.5 28t-56.5 10q-33 0 -59 -11t-43.5 -28.5t-27 -40.5t-9.5 -47q0 -29 13.5 -50.5t35.5 -37.5t50.5 -29t58.5 -26zM223 302q-25 -9 -49.5 -22t-43.5 -30.5t-30.5 -40.5t-11.5 -51q0 -60 37 -96
t112 -36q39 0 67 10t46 27t26.5 40t8.5 50q0 32 -14 54t-36.5 39t-51.5 30t-60 26zM288 313q27 -12 52 -25.5t44 -31.5t30.5 -41.5t11.5 -55.5t-11.5 -62.5t-34.5 -54t-59 -38t-85 -14.5t-85 13t-59 35.5t-34 52t-11 61.5q0 37 15 64t36.5 47t46.5 33t45 21q-27 11 -51 24.5
t-42 30.5t-29 40t-11 54q0 38 14 69t38.5 53t57.5 34t70 12t69.5 -11t57 -31.5t38.5 -50.5t14 -69q0 -32 -12.5 -57.5t-31.5 -45t-41.5 -33.5t-42.5 -23z" />
    <glyph glyph-name="nine" unicode="9" horiz-adv-x="490" 
d="M444 242q0 -60 -20.5 -123t-63.5 -119.5t-109.5 -100.5t-158.5 -65l-11 37q72 17 127.5 48.5t95 73t63.5 89t33 96.5l-1 1q-36 -32 -81.5 -54.5t-96.5 -22.5q-34 0 -66 10.5t-57 32t-40 54.5t-15 79q0 45 14 82.5t39.5 64.5t62 42t81.5 15q48 0 86 -19t64 -51.5t40 -76
t14 -93.5zM403 241q0 42 -10.5 79.5t-31 65.5t-51 44t-71.5 16q-36 0 -64.5 -12.5t-49 -34.5t-31 -52.5t-10.5 -66.5q0 -34 11.5 -60.5t30.5 -44.5t44 -27.5t53 -9.5q50 0 93.5 19t85.5 61q1 6 1 11.5v11.5z" />
    <glyph glyph-name="colon" unicode=":" horiz-adv-x="153" 
d="M112 357q0 -15 -10 -26.5t-26 -11.5t-25.5 11.5t-9.5 26.5q0 14 9.5 25t25.5 11t26 -11t10 -25zM112 28q0 -15 -10 -26.5t-26 -11.5t-25.5 11.5t-9.5 26.5q0 14 9.5 25t25.5 11t26 -11t10 -25z" />
    <glyph glyph-name="semicolon" unicode=";" horiz-adv-x="153" 
d="M112 357q0 -15 -10 -26.5t-26 -11.5t-25.5 11.5t-9.5 26.5q0 14 9.5 25t25.5 11t26 -11t10 -25zM32 28q0 14 11.5 27t29.5 13q23 0 40 -18t17 -49q0 -38 -27 -79t-73 -70l-19 17q42 31 58 58t16 54q0 20 -13.5 30t-39.5 17z" />
    <glyph glyph-name="less" unicode="&#x3c;" horiz-adv-x="437" 
d="M396 19l-361 192v48l361 192v-42l-325 -170v-9l325 -170v-41z" />
    <glyph glyph-name="equal" unicode="=" horiz-adv-x="428" 
d="M39 300l-3 38h357l-3 -38h-351zM36 131l3 38h351l3 -38h-357z" />
    <glyph glyph-name="greater" unicode="&#x3e;" horiz-adv-x="437" 
d="M48 19v41l325 170v9l-325 170v42l361 -192v-48z" />
    <glyph glyph-name="question" unicode="?" horiz-adv-x="341" 
d="M300 473q0 -30 -8.5 -51t-23 -37t-33.5 -27t-40 -21q-41 -19 -60 -33.5t-19 -37.5q0 -24 17 -45t48 -41l-25 -10q-31 19 -53.5 43.5t-22.5 52.5q0 38 24.5 60.5t68.5 41.5q19 8 35.5 17.5t28.5 21.5t18.5 27.5t6.5 37.5q0 26 -10 49.5t-28 41.5t-44 29t-58 11
q-20 0 -35.5 -2.5t-32.5 -7.5v37q13 3 29.5 6t36.5 3q45 0 79 -15t56.5 -39t33.5 -53.5t11 -58.5zM180 28q0 -15 -10 -26.5t-26 -11.5t-25.5 11.5t-9.5 26.5q0 14 9.5 25t25.5 11t26 -11t10 -25z" />
    <glyph glyph-name="at" unicode="@" horiz-adv-x="834" 
d="M539 209q-13 -61 8.5 -92.5t66.5 -31.5q26 0 51.5 14t46 42t33 69t12.5 96q0 68 -27.5 123.5t-73 94.5t-104.5 60.5t-122 21.5q-73 0 -136.5 -29.5t-111 -79.5t-74.5 -115.5t-27 -138.5q0 -70 23.5 -131t66 -106.5t101.5 -72t129 -26.5q29 0 63 6.5t59 14.5l6 -28
q-32 -10 -66 -15t-64 -5q-76 0 -140.5 28t-111 77t-72.5 115t-26 142q0 80 29.5 151t81 124t121 84t149.5 31q72 0 137 -23t114.5 -65t78.5 -102.5t29 -135.5q0 -61 -15 -108.5t-40 -79.5t-57 -48.5t-65 -16.5q-44 0 -73 22.5t-39 51.5q-34 -42 -64 -58t-62 -16t-58 12.5
t-44 35t-28 52.5t-10 64q0 48 16.5 91.5t45 75.5t65.5 51t78 19q33 0 58.5 -12t45.5 -27l45 29l-49 -235v0zM535 377q-17 17 -42.5 30.5t-57.5 13.5t-61 -16.5t-50.5 -44.5t-34.5 -65t-13 -78q0 -27 7 -50.5t20.5 -41t33.5 -27.5t46 -10t53.5 15.5t53.5 50.5z" />
    <glyph glyph-name="A" unicode="A" horiz-adv-x="576" 
d="M551 0h-43l-73 195h-295l-73 -195h-42l239 625h52zM289 588l-134 -355h265z" />
    <glyph glyph-name="B" unicode="B" horiz-adv-x="534" 
d="M338 317q76 -10 114.5 -49.5t38.5 -96.5q0 -37 -12 -68t-38.5 -54t-67.5 -36t-99 -13h-192v625h182q56 0 95.5 -12t64 -33t36 -50.5t11.5 -64.5q0 -22 -7.5 -45.5t-23 -44t-41 -36.5t-61.5 -22zM429 462q0 57 -39 91t-128 34h-138v-255h132q37 0 68.5 8t55 24.5
t36.5 40.5t13 57zM449 172q0 55 -45.5 88.5t-147.5 33.5h-132v-256h151q48 0 81 10t54 28t30 42.5t9 53.5z" />
    <glyph glyph-name="C" unicode="C" horiz-adv-x="571" 
d="M513 549q-33 21 -79.5 34.5t-96.5 13.5q-51 0 -95.5 -18.5t-78 -55t-52.5 -90t-19 -122.5q0 -66 17.5 -118.5t50 -89t78 -56t101.5 -19.5q51 0 96 14t77 37l10 -39q-32 -21 -79.5 -35.5t-104.5 -14.5q-67 0 -120.5 22.5t-91 64t-57.5 101t-20 133.5t21.5 134t60.5 102
t92 65t116 23q61 0 109 -16t78 -34z" />
    <glyph glyph-name="D" unicode="D" horiz-adv-x="611" 
d="M564 317q0 -76 -23 -135t-66.5 -99.5t-106 -61.5t-141.5 -21h-145v625h151q76 0 137 -22.5t104 -63t66.5 -97.5t23.5 -125zM521 313q0 62 -20 112.5t-57.5 86.5t-91.5 55.5t-123 19.5h-105v-549h105q64 0 117.5 16.5t92.5 50t60.5 85.5t21.5 123z" />
    <glyph glyph-name="E" unicode="E" horiz-adv-x="490" 
d="M82 0v625h358v-38h-316v-256h264v-37h-264v-256h316v-38h-358z" />
    <glyph glyph-name="F" unicode="F" horiz-adv-x="463" 
d="M82 625h349v-39h-307v-264h255v-38h-255v-284h-42v625z" />
    <glyph glyph-name="G" unicode="G" horiz-adv-x="610" 
d="M544 53q-43 -31 -96 -47t-110 -16q-67 0 -120.5 22.5t-91 64t-57.5 101t-20 133.5t21.5 134t60.5 102t92 65t116 23q61 0 109 -16t78 -34l-13 -36q-33 21 -79.5 34.5t-96.5 13.5q-51 0 -95.5 -18.5t-78 -55t-52.5 -90t-19 -122.5q0 -66 17.5 -118.5t50 -89t78 -56
t101.5 -19.5q49 0 90.5 12.5t73.5 32.5v192h-187v37h228v-249v0z" />
    <glyph glyph-name="H" unicode="H" horiz-adv-x="638" 
d="M514 0v295h-390v-295h-42v625h42v-293h390v293h42v-625h-42z" />
    <glyph glyph-name="I" unicode="I" horiz-adv-x="208" 
d="M83 0v625h42v-625h-42z" />
    <glyph glyph-name="J" unicode="J" horiz-adv-x="409" 
d="M342 194q0 -95 -45 -149.5t-142 -54.5q-43 0 -80.5 12.5t-60.5 26.5l9 41q31 -19 65 -31t69 -12q70 0 106.5 43t36.5 125v430h42v-431v0z" />
    <glyph glyph-name="K" unicode="K" horiz-adv-x="525" 
d="M125 323l314 302h56l-329 -311l335 -314h-56l-320 301h-1v-301h-42v625h42v-302h1z" />
    <glyph glyph-name="L" unicode="L" horiz-adv-x="461" 
d="M82 0v625h42v-586h316v-39h-358z" />
    <glyph glyph-name="M" unicode="M" horiz-adv-x="750" 
d="M625 572l-222 -573h-54l-224 574l-14 -573h-43l21 625h59l229 -591l227 591h58l19 -625h-42z" />
    <glyph glyph-name="N" unicode="N" horiz-adv-x="631" 
d="M509 625h40v-631h-46l-381 573v-567h-40v625h49l378 -568v568z" />
    <glyph glyph-name="O" unicode="O" horiz-adv-x="698" 
d="M649 314q0 -73 -22.5 -132.5t-63 -102t-95.5 -66t-120 -23.5q-62 0 -116.5 24t-95 66.5t-64 102t-23.5 129.5q0 73 22.5 132.5t63 102t95.5 65.5t120 23q62 0 116.5 -23.5t95 -66.5t64 -101.5t23.5 -129.5zM606 312q0 63 -20 115.5t-54.5 90.5t-82 59t-102.5 21t-102 -21
t-81 -58.5t-53 -89.5t-19 -115t20 -115.5t54.5 -90.5t82 -59.5t102.5 -21.5t102 21t81 59t53 90t19 115z" />
    <glyph glyph-name="P" unicode="P" horiz-adv-x="500" 
d="M461 437q0 -100 -67 -150.5t-183 -52.5l-87 -1v-233h-42v625h140q119 0 179 -51t60 -137zM417 436q0 71 -51 111t-144 40h-98v-316l87 1q98 2 152 39.5t54 124.5z" />
    <glyph glyph-name="Q" unicode="Q" horiz-adv-x="698" 
d="M669 -101l-19 -36l-243 132q-14 -2 -29 -3.5t-30 -1.5q-62 0 -116.5 24t-95 66.5t-64 102t-23.5 129.5q0 73 22.5 132.5t63 102t95.5 65.5t120 23q62 0 116.5 -23.5t95 -66.5t64 -101.5t23.5 -129.5q0 -57 -14 -105.5t-39 -87.5t-60.5 -67.5t-79.5 -44.5zM606 312
q0 63 -20 115.5t-54.5 90.5t-82 59t-102.5 21t-102 -21t-81 -58.5t-53 -89.5t-19 -115t20 -115.5t54.5 -90.5t82 -59.5t102.5 -21.5t102 21t81 59t53 90t19 115z" />
    <glyph glyph-name="R" unicode="R" horiz-adv-x="513" 
d="M124 0h-42v625h148q117 0 170.5 -48.5t53.5 -128.5q0 -35 -12.5 -63.5t-33.5 -49.5t-48 -35.5t-56 -22.5l178 -277h-47l-169 269l-142 -9v-260zM245 302q32 1 61.5 11.5t53 29t37.5 45t14 59.5q0 67 -46 103.5t-140 36.5h-101v-289z" />
    <glyph glyph-name="S" unicode="S" horiz-adv-x="471" 
d="M230 27q36 0 66 10.5t51 28.5t32.5 41.5t11.5 49.5q0 32 -13 54.5t-35.5 39.5t-53 29.5t-65.5 24.5q-32 11 -63.5 24.5t-56 32.5t-40 46t-15.5 65q0 35 14.5 64.5t40 51t60 34t75.5 12.5q54 0 99 -14.5t80 -37.5l-16 -37q-35 24 -77.5 38t-85.5 14q-37 0 -65 -10t-47 -27
t-28.5 -39t-9.5 -46q0 -28 12.5 -49t34 -36.5t51.5 -28t65 -24.5q33 -11 65 -25t57 -34t40.5 -48.5t15.5 -69.5q0 -36 -15 -67.5t-41.5 -54.5t-63.5 -36t-82 -13q-57 0 -104.5 15t-86.5 41l16 36q35 -24 80 -39.5t97 -15.5z" />
    <glyph glyph-name="T" unicode="T" horiz-adv-x="540" 
d="M291 586v-586h-42v586h-221v39h484v-39h-221z" />
    <glyph glyph-name="U" unicode="U" horiz-adv-x="586" 
d="M519 236q0 -56 -14.5 -101.5t-43.5 -77.5t-71 -49.5t-98 -17.5q-109 0 -167 62.5t-58 173.5v399h41v-396q0 -94 46.5 -148t138.5 -54q94 0 139.5 55t45.5 155v388h41v-389v0z" />
    <glyph glyph-name="V" unicode="V" horiz-adv-x="547" 
d="M298 0h-50l-228 625h43l211 -584l211 584h42z" />
    <glyph glyph-name="W" unicode="W" horiz-adv-x="892" 
d="M268 0h-39l-178 625h43l157 -560l171 560h53l174 -560l148 560h44l-173 -625h-39l-181 580z" />
    <glyph glyph-name="X" unicode="X" horiz-adv-x="549" 
d="M63 0h-49l235 322l-218 303h48l196 -277l196 277h48l-220 -302l235 -323h-49l-212 297z" />
    <glyph glyph-name="Y" unicode="Y" horiz-adv-x="507" 
d="M275 254v-254h-42v253l-219 372h47l194 -331l192 331h46z" />
    <glyph glyph-name="Z" unicode="Z" horiz-adv-x="498" 
d="M26 0v30l388 558h-373v37h425v-30l-388 -558h387v-37h-439z" />
    <glyph glyph-name="bracketleft" unicode="[" horiz-adv-x="409" 
d="M114 -222v897h245v-36h-203v-825h203v-36h-245z" />
    <glyph glyph-name="backslash" unicode="\" horiz-adv-x="197" 
d="M7 702l243 -901h-37l-244 901h38z" />
    <glyph glyph-name="bracketright" unicode="]" horiz-adv-x="409" 
d="M50 -186h203v825h-203v36h245v-897h-245v36z" />
    <glyph glyph-name="asciicircum" unicode="^" horiz-adv-x="359" 
d="M304 515l-103 144h-2l-103 -144h-33l112 177h50l112 -177h-33z" />
    <glyph glyph-name="underscore" unicode="_" horiz-adv-x="429" 
d="M-9 -38v38h447v-38h-447z" />
    <glyph glyph-name="grave" unicode="`" horiz-adv-x="399" 
d="M230 515l-158 177h58l131 -177h-31z" />
    <glyph glyph-name="a" unicode="a" horiz-adv-x="427" 
d="M316 243q-67 -7 -113 -18.5t-74.5 -27.5t-41 -36.5t-12.5 -45.5q0 -43 31.5 -66t75.5 -23q43 0 77.5 22.5t56.5 48.5v146zM320 62q-10 -13 -25.5 -26t-34.5 -23.5t-40 -16.5t-43 -6q-30 0 -56.5 9t-45.5 24.5t-30 38t-11 49.5q0 32 14.5 59.5t47.5 48.5t87 35t133 19v42
q0 53 -26.5 84t-85.5 31q-21 0 -42.5 -5.5t-41.5 -13.5t-38 -18.5t-32 -21.5l-10 41q32 23 78.5 39.5t88.5 16.5q33 0 60.5 -8t47.5 -26t31 -46.5t11 -68.5v-248q0 -21 8.5 -35t39.5 -13l-3 -31q-34 -2 -56.5 15t-24.5 55h-1z" />
    <glyph glyph-name="b" unicode="b" horiz-adv-x="499" 
d="M459 240q0 -57 -16.5 -103t-46 -78.5t-69.5 -50.5t-88 -18q-35 0 -68.5 10.5t-56.5 24.5l-40 -39v689l41 12v-283q11 10 26 20.5t34 19t41 14t46 5.5q42 0 78.5 -16t62.5 -45t41 -70t15 -92zM417 236q0 40 -11.5 74.5t-32.5 60t-51 40.5t-67 15q-42 0 -78 -16.5
t-62 -41.5v-303q22 -17 57 -27.5t70 -10.5q39 0 71 14.5t55 42t36 66t13 86.5z" />
    <glyph glyph-name="c" unicode="c" horiz-adv-x="445" 
d="M398 29q-28 -17 -62 -28t-70 -11q-49 0 -89.5 17.5t-70 49t-46 75t-16.5 95.5t16 96t45 76.5t69 50.5t87 18q41 0 76 -10t62 -28l-10 -37q-25 16 -57.5 26.5t-70.5 10.5q-39 0 -71 -15t-55 -42t-36 -63.5t-13 -80.5t13 -81t36.5 -63.5t56.5 -41.5t74 -15q33 0 65 11
t57 27l10 -37v0z" />
    <glyph glyph-name="d" unicode="d" horiz-adv-x="502" 
d="M388 674l41 13v-687h-41v45q-21 -20 -57 -37.5t-81 -17.5q-44 0 -82 16.5t-65.5 47t-43 73.5t-15.5 95q0 55 16.5 99.5t46 76t69.5 48.5t88 17q34 0 67.5 -10.5t56.5 -24.5v246zM388 388q-22 17 -57 27.5t-70 10.5q-39 0 -71 -14.5t-55 -41.5t-36 -64.5t-13 -83.5
q0 -42 12 -77.5t33.5 -62t52.5 -41.5t69 -15t73.5 17t61.5 42v303v0z" />
    <glyph glyph-name="e" unicode="e" horiz-adv-x="460" 
d="M86 229q0 -43 11.5 -80t33.5 -64t53.5 -42t70.5 -15t71 11t57 27l9 -37q-27 -17 -62.5 -28t-77.5 -11q-47 0 -85.5 17.5t-65.5 49t-42 75t-15 95.5t15 96t42.5 76.5t65 50.5t82.5 18q34 0 63 -11t50.5 -31.5t33.5 -49.5t12 -66q0 -17 -3 -37t-7 -35l-312 -2v-7zM363 273
q3 17 3 34q0 54 -31.5 88.5t-86.5 34.5q-64 0 -106 -43.5t-53 -113.5h274z" />
    <glyph glyph-name="f" unicode="f" horiz-adv-x="279" 
d="M273 641q-16 8 -31.5 13t-36.5 5q-83 0 -83 -116v-90h142l-3 -35h-139v-418h-41v416l-66 4l3 26l62 8l1 87q1 43 10.5 72.5t26.5 48t39.5 26.5t48.5 8q22 0 42 -5t35 -13z" />
    <glyph glyph-name="g" unicode="g" horiz-adv-x="460" 
d="M87 297q0 -27 8.5 -51t25 -42.5t40.5 -29t55 -10.5q60 0 95 38.5t35 95.5t-33 96.5t-96 39.5q-62 0 -96 -39t-34 -98zM155 -4q-48 -12 -78 -42.5t-30 -64.5q0 -45 43 -74t124 -29q39 0 74 10t61 26.5t41.5 39t15.5 48.5q0 45 -37 64.5t-105 19.5h-54.5t-54.5 2zM110 6
q-30 8 -48 25t-18 43q0 29 23 50.5t51 34.5q-29 20 -50 55.5t-21 82.5q0 39 13.5 71t37 54t55 34t67.5 12q35 0 58.5 -8t40.5 -19l136 8l3 -42l-114 5q20 -20 31.5 -51.5t11.5 -60.5q0 -39 -13.5 -70.5t-37 -53t-55 -33.5t-68.5 -12q-20 0 -38.5 4.5t-32.5 10.5
q-22 -11 -39.5 -26t-17.5 -37q0 -23 22.5 -37t80.5 -14h76q97 0 139 -32.5t42 -84.5q0 -38 -20.5 -68t-53.5 -51t-75 -32.5t-86 -11.5q-47 0 -84.5 10t-63.5 28t-39.5 42t-13.5 53q0 20 8 38.5t21.5 34.5t32 28.5t39.5 19.5z" />
    <glyph glyph-name="h" unicode="h" horiz-adv-x="492" 
d="M381 0v304q0 61 -26 93.5t-82 32.5q-39 0 -79.5 -20.5t-78.5 -58.5v-351h-41v674l41 13v-298q40 41 85 60t78 19q68 0 106 -39.5t38 -115.5v-313h-41z" />
    <glyph glyph-name="i" unicode="i" horiz-adv-x="193" 
d="M126 599q0 -12 -8 -22t-22 -10t-21.5 10t-7.5 22q0 11 7.5 20.5t21.5 9.5t22 -9.5t8 -20.5zM76 0v455l41 13v-468h-41z" />
    <glyph glyph-name="j" unicode="j" horiz-adv-x="193" 
d="M126 599q0 -12 -8 -22t-22 -10t-21.5 10t-7.5 22q0 11 7.5 20.5t21.5 9.5t22 -9.5t8 -20.5zM-22 -222q29 16 48 33t30 38t15.5 48t4.5 63v495l41 13v-514q0 -78 -25.5 -126t-84.5 -79z" />
    <glyph glyph-name="k" unicode="k" horiz-adv-x="412" 
d="M115 231v-231h-41v674l41 13v-442h2l222 213h53l-231 -220l232 -238h-54l-222 231h-2z" />
    <glyph glyph-name="l" unicode="l" horiz-adv-x="188" 
d="M74 0v674l41 13v-687h-41z" />
    <glyph glyph-name="m" unicode="m" horiz-adv-x="757" 
d="M646 0v304q0 61 -26 93.5t-82 32.5q-35 0 -71.5 -17.5t-70.5 -48.5q5 -22 5 -56v-308h-41v304q0 61 -26 93.5t-82 32.5q-34 0 -69 -15.5t-68 -44.5v-370h-41v455l41 13v-62q37 32 75 47t67 15q46 0 79 -19t50 -57q39 40 82 58t75 18q68 0 106 -39.5t38 -115.5v-313h-41z
" />
    <glyph glyph-name="n" unicode="n" horiz-adv-x="492" 
d="M381 0v304q0 61 -26 93.5t-82 32.5q-39 0 -79.5 -20.5t-78.5 -58.5v-351h-41v455l41 13v-80q40 41 85 60.5t78 19.5q68 0 106 -39.5t38 -115.5v-313h-41z" />
    <glyph glyph-name="o" unicode="o" horiz-adv-x="534" 
d="M490 231q0 -54 -17.5 -98.5t-48.5 -76t-71.5 -49t-87.5 -17.5q-46 0 -86.5 16.5t-70.5 47.5t-47 75t-17 98t17.5 98.5t48.5 76t72 49t87 17.5q47 0 87 -16.5t70 -47.5t47 -75t17 -98zM449 229q0 47 -14 84.5t-38 63.5t-57.5 40t-72.5 14t-72.5 -15t-57.5 -42t-38 -64
t-14 -81q0 -47 13.5 -84.5t38 -63.5t58 -40t72.5 -14t72.5 15t57.5 42t38 64t14 81z" />
    <glyph glyph-name="p" unicode="p" horiz-adv-x="503" 
d="M115 408q21 20 57 37.5t81 17.5q44 0 82 -16.5t65.5 -47t43 -73t15.5 -95.5q0 -55 -16.5 -99.5t-46 -76t-69.5 -48.5t-88 -17q-34 0 -67.5 10.5t-56.5 24.5v-258h-41v694l41 12v-65v0zM115 65q22 -17 57 -27.5t70 -10.5q39 0 71 14.5t55 41.5t36 64.5t13 83.5
q0 42 -12 77.5t-33.5 61.5t-52.5 41t-69 15t-73.5 -16.5t-61.5 -41.5v-303z" />
    <glyph glyph-name="q" unicode="q" horiz-adv-x="502" 
d="M388 -233v278q-21 -20 -57 -37.5t-81 -17.5q-44 0 -82 16.5t-65.5 47t-43 73.5t-15.5 95q0 55 16.5 99.5t46 76t69.5 48.5t88 17q35 0 68.5 -10.5t56.5 -24.5l40 40v-701h-41zM388 388q-22 17 -57 27.5t-70 10.5q-39 0 -71 -14.5t-55 -41.5t-36 -64.5t-13 -83.5
q0 -42 12 -77.5t33.5 -61.5t52.5 -41t69 -15t73.5 16.5t61.5 41.5v303v0z" />
    <glyph glyph-name="r" unicode="r" horiz-adv-x="330" 
d="M115 0h-41v455l41 13v-114q20 51 57 82.5t84 31.5q22 0 41.5 -5.5t33.5 -13.5l-12 -37q-11 7 -28 12.5t-39 5.5q-39 0 -73.5 -32t-63.5 -110v-288z" />
    <glyph glyph-name="s" unicode="s" horiz-adv-x="372" 
d="M329 119q0 -30 -12.5 -54t-33.5 -40.5t-49 -25.5t-60 -9q-39 0 -75.5 11t-63.5 28l13 38q29 -19 61 -30t67 -11q22 0 42.5 6t37 17t26.5 27.5t10 38.5q0 25 -10.5 41t-27.5 27.5t-39 19t-45 15.5t-46 18t-41.5 24.5t-30 35t-11.5 48.5q0 31 11.5 54t31 38.5t45.5 23.5
t56 8q36 0 69.5 -9.5t60.5 -23.5l-14 -37q-29 16 -58.5 25.5t-61.5 9.5q-47 0 -75 -23t-28 -61q0 -22 10.5 -37.5t27 -26.5t38.5 -18.5t44 -15.5q24 -8 47 -17.5t42 -24.5t30.5 -36.5t11.5 -53.5z" />
    <glyph glyph-name="t" unicode="t" horiz-adv-x="319" 
d="M288 14q-23 -14 -50 -21.5t-52 -7.5q-64 0 -89.5 38t-23.5 108l8 285l-63 4l3 26l61 8l3 109h40l-3 -110h163l-3 -35h-161l-8 -288q-2 -57 15.5 -82.5t58.5 -25.5q25 0 48.5 8t44.5 19l8 -35v0z" />
    <glyph glyph-name="u" unicode="u" horiz-adv-x="491" 
d="M111 458v-304q0 -61 26 -93.5t82 -32.5q39 0 79.5 20.5t78.5 58.5v351h41v-455l-41 -13v81q-40 -41 -85 -61t-78 -20q-68 0 -106 39.5t-38 115.5v313h41z" />
    <glyph glyph-name="v" unicode="v" horiz-adv-x="406" 
d="M221 -1h-35l-181 459h44l156 -400l153 400h43z" />
    <glyph glyph-name="w" unicode="w" horiz-adv-x="640" 
d="M155 -1l-139 459h43l115 -391l134 391h36l132 -393l108 393h43l-134 -459h-35l-132 397l-138 -397h-33z" />
    <glyph glyph-name="x" unicode="x" horiz-adv-x="374" 
d="M320 0l-133 207l-134 -207h-46l159 236l-148 222h45l124 -192l124 192h44l-147 -220l159 -238h-47z" />
    <glyph glyph-name="y" unicode="y" horiz-adv-x="406" 
d="M228 15l-43 -117q-15 -40 -30.5 -66.5t-32 -42t-35 -21.5t-38.5 -6q-26 0 -44 5t-35 13l12 37q16 -8 31.5 -13t35.5 -5q13 0 25.5 4.5t25 17t25 34.5t25.5 57l34 92l-179 454h44l156 -401l153 401h43z" />
    <glyph glyph-name="z" unicode="z" horiz-adv-x="374" 
d="M21 0v28l280 395h-271v35h320v-28l-280 -395h280v-35h-329z" />
    <glyph glyph-name="braceleft" unicode="{" horiz-adv-x="324" 
d="M309 -229q-51 3 -90 10.5t-66 21.5t-41 35.5t-14 52.5q0 32 8.5 60t18.5 54t18.5 50.5t8.5 48.5q0 25 -6.5 43t-22.5 30t-41 19t-63 10l-3 26l3 26q75 6 104 28t29 73q0 25 -8.5 49.5t-18.5 50.5t-18.5 54t-8.5 59q0 62 55 88t156 32v-34q-94 -7 -131.5 -26t-37.5 -55
q0 -24 8.5 -51.5t18.5 -56t18.5 -55t8.5 -49.5t-7.5 -46t-24.5 -41.5t-44 -31t-65 -14.5v-1q38 -2 65 -14.5t44 -31t24.5 -41.5t7.5 -47q0 -22 -8.5 -49t-18.5 -54.5t-18.5 -54.5t-8.5 -50q0 -38 37.5 -57.5t131.5 -26.5v-34v0z" />
    <glyph glyph-name="bar" unicode="|" horiz-adv-x="268" 
d="M113 702h42v-901h-42v901z" />
    <glyph glyph-name="braceright" unicode="}" horiz-adv-x="324" 
d="M305 204q-75 -6 -104.5 -28t-29.5 -73q0 -25 8.5 -49.5t19 -50.5t19 -54t8.5 -59t-14 -52.5t-41 -35.5t-66.5 -21.5t-90.5 -10.5v34q47 4 79.5 10t52.5 16t29 23.5t9 31.5q0 24 -8.5 51.5t-18.5 56t-18.5 55.5t-8.5 49q0 23 7.5 46t24.5 41.5t44 31t65 14.5v1
q-38 2 -65 14.5t-44 31t-24.5 41.5t-7.5 47q0 23 8.5 49.5t18.5 54.5t18.5 55t8.5 50q0 19 -9 33t-29 23.5t-52.5 16t-79.5 10.5v34q51 -3 90.5 -10.5t66.5 -21.5t41 -35.5t14 -52.5q0 -32 -8.5 -60t-19 -54t-19 -50.5t-8.5 -48.5q0 -25 7 -43t22.5 -30t41.5 -19t63 -10
l2 -26z" />
    <glyph glyph-name="asciitilde" unicode="~" horiz-adv-x="359" 
d="M353 279q-19 -104 -81 -104q-20 0 -40 11.5t-39.5 25.5t-36.5 25.5t-31 11.5q-17 0 -27.5 -13t-25.5 -56h-25q19 104 81 104q20 0 40.5 -11.5t40 -25.5t36.5 -25.5t30 -11.5q16 0 27 13t25 56h26v0z" />
    <glyph glyph-name="nonbreakingspace" unicode="&#xa0;" horiz-adv-x="119" 
 />
    <glyph glyph-name="exclamdown" unicode="&#xa1;" horiz-adv-x="245" 
d="M87 597q0 15 10 26.5t26 11.5t25.5 -11.5t9.5 -26.5q0 -14 -9.5 -25t-25.5 -11t-26 11t-10 25zM147 -22h-50l13 470h23z" />
    <glyph glyph-name="cent" unicode="&#xa2;" horiz-adv-x="445" 
d="M310 464q50 -9 89 -34l-10 -37q-17 11 -38.5 19.5t-45.5 13.5l-54 -398h15q33 0 65 11t57 27l10 -37q-28 -17 -62 -28t-70 -11h-10t-10 1q0 -1 -2 -18.5t-5 -38.5q-4 -25 -8 -57h-37l8 60q3 23 5.5 41t2.5 19q-37 9 -68 29t-52.5 50t-33.5 68.5t-12 82.5q0 52 16 96
t45 76.5t69 50.5t87 18h12l13 93h37l-13 -97v0zM261 430q-39 0 -71 -15t-55 -42t-36 -63.5t-13 -80.5q0 -74 34.5 -126t94.5 -69l53 396h-7z" />
    <glyph glyph-name="sterling" unicode="&#xa3;" horiz-adv-x="479" 
d="M131 317q-2 32 -3 61.5t-1 54.5q0 96 43 152t134 56q70 0 125 -32l-12 -36q-25 13 -51.5 21.5t-64.5 8.5q-37 0 -62.5 -12t-41.5 -33t-23 -50.5t-7 -65.5q0 -25 1 -56.5t3 -68.5h195l-3 -37h-190q1 -26 1.5 -53.5t0.5 -56.5q0 -20 -1.5 -37.5t-6.5 -32.5
q17 -16 38.5 -30.5t43.5 -25t42 -16.5t35 -6q38 0 67 22.5t44 86.5l30 -7q-10 -68 -47 -103t-88 -35q-45 0 -91 22.5t-86 60.5q-15 -28 -45.5 -48.5t-84.5 -37.5l-9 35q35 12 58 25.5t36.5 31t19 40t5.5 51.5q0 56 -3 114h-94l-3 37h96v0z" />
    <glyph glyph-name="currency" unicode="&#xa4;" horiz-adv-x="506" 
d="M39 375l-3 35h74q17 108 74 169.5t153 61.5q42 0 76 -8t60 -22l-9 -37q-27 14 -59 22.5t-68 8.5q-80 0 -126.5 -49t-60.5 -146h243l-3 -35h-244q-1 -14 -1.5 -29t-0.5 -31q0 -17 0.5 -32.5t1.5 -30.5h214l3 -35h-213q14 -97 59 -146.5t124 -49.5q41 0 73 7.5t59 20.5
l6 -36q-27 -13 -61 -20.5t-79 -7.5q-97 0 -151.5 61t-70.5 171h-73l3 35h66q-1 14 -1.5 28.5t-0.5 30.5q0 34 3 64h-67z" />
    <glyph glyph-name="yen" unicode="&#xa5;" horiz-adv-x="547" 
d="M58 265l-3 36h159l-200 324h46l195 -324l193 324h45l-100 -162q-19 -30 -36.5 -59.5t-31.5 -52t-23 -36.5l-9 -14h159l-3 -36h-174v-98h174l3 -36h-177v-131h-42v131h-178l3 36h175v98h-175z" />
    <glyph glyph-name="brokenbar" unicode="&#xa6;" horiz-adv-x="375" 
d="M307 180q0 -190 -171 -190q-34 0 -67.5 10.5t-53.5 22.5l8 42q25 -17 56.5 -27.5t58.5 -10.5q127 0 127 156v442h42v-445v0z" />
    <glyph glyph-name="section" unicode="&#xa7;" horiz-adv-x="468" 
d="M447 283q0 -25 -10 -45.5t-27 -37t-40 -28t-50 -18.5q26 -15 42 -37t16 -55q0 -30 -13 -54t-35 -40.5t-50.5 -25t-60.5 -8.5q-39 0 -75.5 11t-63.5 28l13 36q29 -18 61 -28.5t67 -10.5q23 0 44 6t38 17.5t27 27.5t10 37q0 23 -13 39.5t-34 28.5t-48.5 21t-56.5 18
q-31 9 -61 20t-53.5 26t-38 36t-14.5 51q0 25 10.5 46.5t28.5 38t42 28.5t52 18q-29 15 -46.5 36t-17.5 54q0 32 12 55t32.5 38t47.5 22.5t56 7.5q36 0 69.5 -9.5t60.5 -23.5l-14 -35q-29 15 -58.5 24t-61.5 9q-47 0 -76.5 -22.5t-29.5 -60.5q0 -21 12.5 -36t32.5 -26
t46.5 -19.5t54.5 -17.5q32 -9 62.5 -20t55.5 -27t40 -39t15 -56zM409 278q0 33 -21.5 53t-54 33.5t-71.5 24.5t-74 24q-21 -7 -43.5 -17t-41.5 -23.5t-31.5 -30.5t-12.5 -38q0 -31 22.5 -50.5t57 -33t75 -24.5t76.5 -26q20 7 41 17t38.5 23t28.5 30t11 38z" />
    <glyph glyph-name="dieresis" unicode="&#xa8;" 
d="M325 599q0 -14 -9.5 -25.5t-24.5 -11.5q-16 0 -26 11.5t-10 25.5t10 24.5t26 10.5q15 0 24.5 -10.5t9.5 -24.5zM144 599q0 -14 -9.5 -25.5t-25.5 -11.5t-25 11.5t-9 25.5t9 24.5t25 10.5t25.5 -10.5t9.5 -24.5z" />
    <glyph glyph-name="copyright" unicode="&#xa9;" horiz-adv-x="731" 
d="M366 -16q-68 0 -127.5 26t-104 70t-70 104t-25.5 127q0 68 25.5 127.5t70 104t104 70.5t127.5 26t127.5 -26t104 -70.5t70 -104t25.5 -127.5q0 -67 -25.5 -127t-70 -104t-104 -70t-127.5 -26zM666 312q0 62 -23.5 116.5t-64 95.5t-95.5 65t-117 24t-116.5 -24t-95 -65
t-64 -95.5t-23.5 -116.5q0 -61 23.5 -116t64 -95.5t95 -64.5t116.5 -24t117 24t95.5 64.5t64 95.5t23.5 116zM474 431q-44 28 -96 28q-58 0 -95 -38.5t-37 -109.5q0 -68 36 -108t96 -40q29 0 54.5 9t44.5 23l7 -39q-20 -14 -48 -21.5t-59 -7.5q-78 0 -125 49t-47 134
q0 42 12.5 76t35.5 58.5t55 37.5t70 13q32 0 60.5 -8t48.5 -21z" />
    <glyph glyph-name="ordfeminine" unicode="&#xaa;" horiz-adv-x="328" 
d="M273 252q-21 16 -29 55h-1q-8 -9 -21 -19t-29 -18t-33.5 -13t-34.5 -5q-48 0 -74.5 29.5t-26.5 68.5q0 57 51 89.5t165 40.5v24q0 46 -18 71t-66 25q-33 0 -62.5 -14t-51.5 -31l-16 29q25 19 59.5 35t72.5 16q53 0 85 -29t32 -99v-160q0 -32 10.5 -53t24.5 -35zM240 451
q-52 -4 -86.5 -13.5t-55.5 -22t-30 -28.5t-9 -34q0 -32 21.5 -49.5t50.5 -17.5q27 0 58 14t51 36v115z" />
    <glyph glyph-name="guillemotleft" unicode="&#xab;" horiz-adv-x="566" 
d="M516 28l-228 188v36l228 188l8 -35l-199 -170v-1l199 -171zM248 38l-217 179v34l217 179l8 -35l-188 -160v-1l188 -161z" />
    <glyph glyph-name="logicalnot" unicode="&#xac;" horiz-adv-x="502" 
d="M388 388q-22 17 -57 27.5t-70 10.5q-39 0 -71 -14.5t-55 -41.5t-36 -64.5t-13 -83.5q0 -42 12 -77.5t33.5 -61.5t52.5 -41t69 -15t73.5 16.5t61.5 41.5v303v0zM250 -10q-44 0 -82 16.5t-65.5 47t-43 73.5t-15.5 95q0 55 16.5 99.5t46 76t69.5 48.5t88 17q35 0 68.5 -10.5
t56.5 -24.5l40 40l-1 -397q0 -21 8.5 -35t39.5 -13l-3 -31q-21 -1 -35 4t-23 13t-14 19.5t-7 23.5q-26 -23 -62.5 -42.5t-81.5 -19.5z" />
    <glyph glyph-name="registered" unicode="&#xae;" horiz-adv-x="731" 
d="M366 -16q-68 0 -127.5 26t-104 70t-70 104t-25.5 127q0 68 25.5 127.5t70 104t104 70.5t127.5 26t127.5 -26t104 -70.5t70 -104t25.5 -127.5q0 -67 -25.5 -127t-70 -104t-104 -70t-127.5 -26zM666 312q0 62 -23.5 116.5t-64 95.5t-95.5 65t-117 24t-116.5 -24t-95 -65
t-64 -95.5t-23.5 -116.5q0 -61 23.5 -116t64 -95.5t95 -64.5t116.5 -24t117 24t95.5 64.5t64 95.5t23.5 116zM294 138h-38v354h100q68 0 101 -28.5t33 -78.5q0 -39 -20.5 -64t-52.5 -37l92 -146h-45l-85 137l-85 -5v-132zM358 306q45 2 70 22t25 55q0 75 -100 75h-60v-155z
" />
    <glyph glyph-name="macron" unicode="&#xaf;" 
d="M84 533l3 38h229l3 -38h-235z" />
    <glyph glyph-name="degree" unicode="&#xb0;" horiz-adv-x="339" 
d="M301 505q0 -27 -9 -51t-26 -42t-41.5 -29t-55.5 -11q-30 0 -54.5 11t-42 29t-26.5 42t-9 51t9 51.5t26.5 43t42 29t54.5 10.5q31 0 55.5 -10.5t41.5 -29t26 -43t9 -51.5zM268 505q0 42 -26 72t-73 30t-73 -30t-26 -72q0 -41 26 -71t73 -30t73 30t26 71z" />
    <glyph glyph-name="plusminus" unicode="&#xb1;" horiz-adv-x="731" 
d="M366 -16q-68 0 -127.5 26t-104 70t-70 104t-25.5 127q0 68 25.5 127.5t70 104t104 70.5t127.5 26t127.5 -26t104 -70.5t70 -104t25.5 -127.5q0 -67 -25.5 -127t-70 -104t-104 -70t-127.5 -26zM666 312q0 62 -23.5 116.5t-64 95.5t-95.5 65t-117 24t-116.5 -24t-95 -65
t-64 -95.5t-23.5 -116.5q0 -61 23.5 -116t64 -95.5t95 -64.5t116.5 -24t117 24t95.5 64.5t64 95.5t23.5 116zM509 371q0 -59 -38.5 -88.5t-105.5 -29.5h-54v-125h-38v354h98q70 0 104 -30.5t34 -80.5zM471 370q0 38 -26 58t-75 20h-59v-161h57q103 0 103 83z" />
    <glyph glyph-name="acute" unicode="&#xb4;" horiz-adv-x="399" 
d="M170 515h-31l131 177h58z" />
    <glyph glyph-name="mu" unicode="&#xb5;" horiz-adv-x="502" 
d="M429 -13q0 -60 -13.5 -102.5t-38.5 -70t-60.5 -40t-78.5 -12.5q-49 0 -82 8t-59 19l10 38q23 -11 54.5 -19.5t76.5 -8.5q34 0 62 10t47.5 32.5t30 58.5t10.5 88v57q-21 -20 -57 -37.5t-81 -17.5q-44 0 -82 16.5t-65.5 47t-43 73.5t-15.5 95q0 55 16.5 99.5t46 76
t69.5 48.5t88 17q35 0 68.5 -10.5t56.5 -24.5l40 40v-481v0zM388 388q-22 17 -57 27.5t-70 10.5q-39 0 -71 -14.5t-55 -41.5t-36 -64.5t-13 -83.5q0 -42 12 -77.5t33.5 -61.5t52.5 -41t69 -15t73.5 16.5t61.5 41.5v303z" />
    <glyph glyph-name="paragraph" unicode="&#xb6;" horiz-adv-x="504" 
d="M370 265q-7 -2 -18.5 -4t-24 -3.5t-25 -2.5t-21.5 -1q-59 0 -103 14t-73 38.5t-43 57.5t-14 72q0 47 16.5 82.5t46.5 59t71 35.5t90 12h138v-689h-40v329v0z" />
    <glyph glyph-name="periodcentered" unicode="&#xb7;" horiz-adv-x="153" 
d="M112 229q0 -15 -10 -26.5t-26 -11.5t-25.5 11.5t-9.5 26.5q0 14 9.5 25t25.5 11t26 -11t10 -25z" />
    <glyph glyph-name="cedilla" unicode="&#xb8;" 
d="M186 -67q24 2 46.5 -2t39 -14.5t26.5 -27t10 -40.5q0 -39 -40 -70.5t-115 -36.5l-4 30q60 4 91.5 23t31.5 51q0 41 -41 52t-101 -2l-3 16l109 108h40l-90 -87v0z" />
    <glyph glyph-name="ordmasculine" unicode="&#xba;" horiz-adv-x="426" 
d="M392 446q0 -43 -14 -79t-38.5 -61t-57.5 -39t-70 -14t-69.5 13.5t-56.5 38t-37.5 60t-13.5 78.5q0 44 14 79t38.5 60.5t57.5 39t70 13.5t69.5 -13t56.5 -38t37.5 -59.5t13.5 -78.5zM356 444q0 74 -40 117t-102 43q-31 0 -57.5 -12t-45.5 -33t-29.5 -50.5t-10.5 -64.5
q0 -74 40 -116.5t103 -42.5q31 0 57 12t45 33t29.5 50t10.5 64z" />
    <glyph glyph-name="guillemotright" unicode="&#xbb;" horiz-adv-x="566" 
d="M318 38l-8 35l189 161v1l-189 160l8 35l218 -179v-34zM51 28l-8 35l198 171v1l-198 170l8 35l228 -188v-36z" />
    <glyph glyph-name="onequarter" unicode="&#xbc;" horiz-adv-x="560" 
d="M122 0h-41v417l-66 4l3 25l62 8l1 77q1 43 10.5 72.5t26.5 48t39.5 26.5t48.5 8q22 0 42 -5t35 -13l-10 -37q-16 8 -31.5 13t-36.5 5q-83 0 -83 -116v-80l239 1l1 87q1 43 10.5 72.5t26.5 48t39.5 26.5t48.5 8q22 0 42 -5t35 -13l-10 -37q-16 8 -31.5 13t-36.5 5
q-83 0 -83 -116v-90h142l-3 -36h-139v-417h-41v417h-240v-417z" />
    <glyph glyph-name="onehalf" unicode="&#xbd;" horiz-adv-x="741" 
d="M122 0h-41v417l-66 4l3 25l62 8l1 77q0 43 10 72.5t26.5 48t39.5 26.5t49 8q22 0 42 -5t35 -13l-10 -37q-16 8 -31.5 13t-36.5 5q-83 0 -83 -116v-80l239 1l1 87q1 43 10.5 72.5t26.5 48t39.5 26.5t48.5 8q22 0 42 -5t35 -13l-10 -37q-16 8 -31.5 13t-36.5 5
q-83 0 -83 -116v-90h215l47 15v-468h-41v417h-221v-417h-41v417h-240v-417z" />
    <glyph glyph-name="threequarters" unicode="&#xbe;" horiz-adv-x="738" 
d="M624 0v674l41 13v-687h-41zM122 0h-41v417l-66 4l3 25l62 8l1 77q1 43 10.5 72.5t26.5 48t39.5 26.5t48.5 8q22 0 42 -5t35 -13l-10 -37q-16 8 -31.5 13t-36.5 5q-83 0 -83 -116v-80l239 1l1 87q1 43 10.5 72.5t26.5 48t39.5 26.5t48.5 8q22 0 42 -5t35 -13l-10 -37
q-16 8 -31.5 13t-36.5 5q-83 0 -83 -116v-90h142l-3 -36h-139v-417h-41v417h-240v-417z" />
    <glyph glyph-name="questiondown" unicode="&#xbf;" horiz-adv-x="341" 
d="M41 151q0 30 8.5 51t23 37t33.5 27t40 21q41 20 60 34t19 37q0 24 -17 45t-48 41l25 10q31 -19 53.5 -43.5t22.5 -52.5q0 -38 -24.5 -60.5t-68.5 -41.5q-19 -8 -35.5 -17t-28.5 -21t-18.5 -28t-6.5 -38q0 -25 10 -49t28 -42t44 -29t58 -11q20 0 35.5 2.5t32.5 7.5v-37
q-13 -3 -29.5 -6t-36.5 -3q-45 0 -79 15.5t-56.5 39.5t-33.5 53.5t-11 57.5zM161 596q0 15 10 26.5t26 11.5t25.5 -11.5t9.5 -26.5q0 -14 -9.5 -25t-25.5 -11t-26 11t-10 25z" />
    <glyph glyph-name="Agrave" unicode="&#xc0;" horiz-adv-x="576" 
d="M551 0h-43l-73 195h-295l-73 -195h-42l239 625h52zM289 588l-134 -355h265zM269 682l-158 177h58l131 -177h-31z" />
    <glyph glyph-name="Aacute" unicode="&#xc1;" horiz-adv-x="576" 
d="M551 0h-43l-73 195h-295l-73 -195h-42l239 625h52zM289 588l-134 -355h265zM298 682h-31l131 177h58z" />
    <glyph glyph-name="Acircumflex" unicode="&#xc2;" horiz-adv-x="576" 
d="M551 0h-43l-73 195h-295l-73 -195h-42l239 625h52zM289 588l-134 -355h265zM392 682l-103 144h-2l-103 -144h-33l112 177h50l112 -177h-33z" />
    <glyph glyph-name="Atilde" unicode="&#xc3;" horiz-adv-x="576" 
d="M551 0h-43l-73 195h-295l-73 -195h-42l239 625h52zM289 588l-134 -355h265zM441 791q-19 -104 -81 -104q-20 0 -40 11.5t-39.5 25.5t-36.5 25.5t-31 11.5q-17 0 -27.5 -13t-25.5 -56h-25q19 104 81 104q20 0 40.5 -11.5t40 -25.5t36.5 -25.5t30 -11.5q16 0 27 13t25 56
h26v0z" />
    <glyph glyph-name="Adieresis" unicode="&#xc4;" horiz-adv-x="576" 
d="M551 0h-43l-73 195h-295l-73 -195h-42l239 625h52zM289 588l-134 -355h265zM411 766q0 -14 -9.5 -25.5t-24.5 -11.5q-16 0 -26 11.5t-10 25.5t10 24.5t26 10.5q15 0 24.5 -10.5t9.5 -24.5zM230 766q0 -14 -9.5 -25.5t-25.5 -11.5t-25 11.5t-9 25.5t9 24.5t25 10.5
t25.5 -10.5t9.5 -24.5z" />
    <glyph glyph-name="Aring" unicode="&#xc5;" horiz-adv-x="576" 
d="M290 588l-134 -355h265zM254 599q-36 10 -56 35.5t-20 57.5q0 40 30 69t82 29t82 -29t30 -69q0 -32 -20 -57.5t-56 -35.5l225 -599h-42l-73 195h-295l-74 -195h-42q65 168 115 300q21 56 41.5 110t36.5 96t26 67.5zM367 690q0 28 -21 49.5t-56 21.5t-56 -20t-21 -48
t21 -48.5t56 -20.5t56 19t21 47z" />
    <glyph glyph-name="AE" unicode="&#xc6;" horiz-adv-x="803" 
d="M395 223v368l-214 -368h214zM52 0h-42l360 625h383v-38h-316v-255h264v-38h-264v-256h316v-38h-358v185h-236z" />
    <glyph glyph-name="Ccedilla" unicode="&#xc7;" horiz-adv-x="571" 
d="M316 -9q-62 3 -111.5 27t-84 65.5t-53 99t-18.5 128.5q0 74 21.5 134t60.5 102t92 65t116 23q61 0 109 -16t78 -34l-13 -36q-33 21 -79.5 34.5t-96.5 13.5q-51 0 -95.5 -18.5t-78 -55t-52.5 -90t-19 -122.5q0 -66 17.5 -118.5t50 -89t78 -56t101.5 -19.5q51 0 96 14
t77 37l10 -39q-29 -20 -72 -34t-95 -16l-59 -57q24 2 46.5 -2t39 -14.5t26.5 -27t10 -40.5q0 -39 -40 -70.5t-115 -36.5l-4 30q60 4 91.5 23t31.5 51q0 41 -41 52t-101 -2l-3 16l79 79v0z" />
    <glyph glyph-name="Egrave" unicode="&#xc8;" horiz-adv-x="490" 
d="M82 0v625h358v-38h-316v-256h264v-37h-264v-256h316v-38h-358zM252 682l-158 177h58l131 -177h-31z" />
    <glyph glyph-name="Eacute" unicode="&#xc9;" horiz-adv-x="490" 
d="M82 0v625h358v-38h-316v-256h264v-37h-264v-256h316v-38h-358zM243 682h-31l131 177h58z" />
    <glyph glyph-name="Ecircumflex" unicode="&#xca;" horiz-adv-x="490" 
d="M82 0v625h358v-38h-316v-256h264v-37h-264v-256h316v-38h-358zM370 682l-103 144h-2l-103 -144h-33l112 177h50l112 -177h-33z" />
    <glyph glyph-name="Edieresis" unicode="&#xcb;" horiz-adv-x="490" 
d="M82 0v625h358v-38h-316v-256h264v-37h-264v-256h316v-38h-358zM381 766q0 -14 -9.5 -25.5t-24.5 -11.5q-16 0 -26 11.5t-10 25.5t10 24.5t26 10.5q15 0 24.5 -10.5t9.5 -24.5zM200 766q0 -14 -9.5 -25.5t-25.5 -11.5t-25 11.5t-9 25.5t9 24.5t25 10.5t25.5 -10.5
t9.5 -24.5z" />
    <glyph glyph-name="Igrave" unicode="&#xcc;" horiz-adv-x="208" 
d="M83 0v625h42v-625h-42zM93 682l-158 177h58l131 -177h-31z" />
    <glyph glyph-name="Iacute" unicode="&#xcd;" horiz-adv-x="208" 
d="M83 0v625h42v-625h-42zM118 682h-31l131 177h58z" />
    <glyph glyph-name="Icircumflex" unicode="&#xce;" horiz-adv-x="208" 
d="M83 0v625h42v-625h-42zM208 682l-103 144h-2l-103 -144h-33l112 177h50l112 -177h-33z" />
    <glyph glyph-name="Idieresis" unicode="&#xcf;" horiz-adv-x="208" 
d="M83 0v625h42v-625h-42zM229 766q0 -14 -9.5 -25.5t-24.5 -11.5q-16 0 -26 11.5t-10 25.5t10 24.5t26 10.5q15 0 24.5 -10.5t9.5 -24.5zM48 766q0 -14 -9.5 -25.5t-25.5 -11.5t-25 11.5t-9 25.5t9 24.5t25 10.5t25.5 -10.5t9.5 -24.5z" />
    <glyph glyph-name="Eth" unicode="&#xd0;" horiz-adv-x="633" 
d="M334 332v-37h-190v-257h105q64 0 117.5 16.5t92.5 50t60.5 85.5t21.5 123q0 62 -20 112.5t-57.5 86.5t-91.5 55.5t-123 19.5h-105v-255h190zM16 295v37h86v293h151q76 0 137 -22.5t104 -63t66.5 -97.5t23.5 -125q0 -76 -23 -135t-66.5 -99.5t-106 -61.5t-141.5 -21h-145
v295h-86z" />
    <glyph glyph-name="Ntilde" unicode="&#xd1;" horiz-adv-x="631" 
d="M509 625h40v-631h-46l-381 573v-567h-40v625h49l378 -568v568zM468 791q-19 -104 -81 -104q-20 0 -40 11.5t-39.5 25.5t-36.5 25.5t-31 11.5q-17 0 -27.5 -13t-25.5 -56h-25q19 104 81 104q20 0 40.5 -11.5t40 -25.5t36.5 -25.5t30 -11.5q16 0 27 13t25 56h26v0z" />
    <glyph glyph-name="Ograve" unicode="&#xd2;" horiz-adv-x="698" 
d="M649 314q0 -73 -22.5 -132.5t-63 -102t-95.5 -66t-120 -23.5q-62 0 -116.5 24t-95 66.5t-64 102t-23.5 129.5q0 73 22.5 132.5t63 102t95.5 65.5t120 23q62 0 116.5 -23.5t95 -66.5t64 -101.5t23.5 -129.5zM606 312q0 63 -20 115.5t-54.5 90.5t-82 59t-102.5 21t-102 -21
t-81 -58.5t-53 -89.5t-19 -115t20 -115.5t54.5 -90.5t82 -59.5t102.5 -21.5t102 21t81 59t53 90t19 115zM343 682l-158 177h58l131 -177h-31z" />
    <glyph glyph-name="Oacute" unicode="&#xd3;" horiz-adv-x="698" 
d="M649 314q0 -73 -22.5 -132.5t-63 -102t-95.5 -66t-120 -23.5q-62 0 -116.5 24t-95 66.5t-64 102t-23.5 129.5q0 73 22.5 132.5t63 102t95.5 65.5t120 23q62 0 116.5 -23.5t95 -66.5t64 -101.5t23.5 -129.5zM606 312q0 63 -20 115.5t-54.5 90.5t-82 59t-102.5 21t-102 -21
t-81 -58.5t-53 -89.5t-19 -115t20 -115.5t54.5 -90.5t82 -59.5t102.5 -21.5t102 21t81 59t53 90t19 115zM356 682h-31l131 177h58z" />
    <glyph glyph-name="Ocircumflex" unicode="&#xd4;" horiz-adv-x="698" 
d="M649 314q0 -73 -22.5 -132.5t-63 -102t-95.5 -66t-120 -23.5q-62 0 -116.5 24t-95 66.5t-64 102t-23.5 129.5q0 73 22.5 132.5t63 102t95.5 65.5t120 23q62 0 116.5 -23.5t95 -66.5t64 -101.5t23.5 -129.5zM606 312q0 63 -20 115.5t-54.5 90.5t-82 59t-102.5 21t-102 -21
t-81 -58.5t-53 -89.5t-19 -115t20 -115.5t54.5 -90.5t82 -59.5t102.5 -21.5t102 21t81 59t53 90t19 115zM453 682l-103 144h-2l-103 -144h-33l112 177h50l112 -177h-33z" />
    <glyph glyph-name="Otilde" unicode="&#xd5;" horiz-adv-x="698" 
d="M649 314q0 -73 -22.5 -132.5t-63 -102t-95.5 -66t-120 -23.5q-62 0 -116.5 24t-95 66.5t-64 102t-23.5 129.5q0 73 22.5 132.5t63 102t95.5 65.5t120 23q62 0 116.5 -23.5t95 -66.5t64 -101.5t23.5 -129.5zM606 312q0 63 -20 115.5t-54.5 90.5t-82 59t-102.5 21t-102 -21
t-81 -58.5t-53 -89.5t-19 -115t20 -115.5t54.5 -90.5t82 -59.5t102.5 -21.5t102 21t81 59t53 90t19 115zM502 791q-19 -104 -81 -104q-20 0 -40 11.5t-39.5 25.5t-36.5 25.5t-31 11.5q-17 0 -27.5 -13t-25.5 -56h-25q19 104 81 104q20 0 40.5 -11.5t40 -25.5t36.5 -25.5
t30 -11.5q16 0 27 13t25 56h26v0z" />
    <glyph glyph-name="Odieresis" unicode="&#xd6;" horiz-adv-x="698" 
d="M649 314q0 -73 -22.5 -132.5t-63 -102t-95.5 -66t-120 -23.5q-62 0 -116.5 24t-95 66.5t-64 102t-23.5 129.5q0 73 22.5 132.5t63 102t95.5 65.5t120 23q62 0 116.5 -23.5t95 -66.5t64 -101.5t23.5 -129.5zM606 312q0 63 -20 115.5t-54.5 90.5t-82 59t-102.5 21t-102 -21
t-81 -58.5t-53 -89.5t-19 -115t20 -115.5t54.5 -90.5t82 -59.5t102.5 -21.5t102 21t81 59t53 90t19 115zM474 766q0 -14 -9.5 -25.5t-24.5 -11.5q-16 0 -26 11.5t-10 25.5t10 24.5t26 10.5q15 0 24.5 -10.5t9.5 -24.5zM293 766q0 -14 -9.5 -25.5t-25.5 -11.5t-25 11.5
t-9 25.5t9 24.5t25 10.5t25.5 -10.5t9.5 -24.5z" />
    <glyph glyph-name="multiply" unicode="&#xd7;" horiz-adv-x="488" 
d="M424 27l-180 180l-180 -180l-26 26l180 180l-180 180l26 26l180 -180l182 182l26 -26l-182 -182l180 -180z" />
    <glyph glyph-name="Oslash" unicode="&#xd8;" horiz-adv-x="698" 
d="M649 314q0 -73 -22.5 -132.5t-63 -102t-95.5 -66t-120 -23.5q-40 0 -76.5 10t-68.5 28l-55 -95h-39q18 32 33 57q13 21 23 39t10 17q-57 43 -91.5 111t-34.5 155q0 73 22.5 132.5t63 102t95.5 65.5t120 23q40 0 76.5 -10t68.5 -28l55 95h39l-66 -113q57 -42 91.5 -110
t34.5 -155zM476 564q-28 17 -60.5 26t-68.5 9q-55 0 -102 -21t-81 -59t-53 -90t-19 -115q0 -75 27.5 -135t75.5 -98l281 483v0zM222 61q29 -17 61 -26t68 -9q55 0 102 21t81 59t53 90.5t19 115.5q0 75 -27.5 135t-75.5 98z" />
    <glyph glyph-name="Ugrave" unicode="&#xd9;" horiz-adv-x="586" 
d="M519 236q0 -56 -14.5 -101.5t-43.5 -77.5t-71 -49.5t-98 -17.5q-109 0 -167 62.5t-58 173.5v399h41v-396q0 -94 46.5 -148t138.5 -54q94 0 139.5 55t45.5 155v388h41v-389v0zM291 682l-158 177h58l131 -177h-31z" />
    <glyph glyph-name="Uacute" unicode="&#xda;" horiz-adv-x="586" 
d="M519 236q0 -56 -14.5 -101.5t-43.5 -77.5t-71 -49.5t-98 -17.5q-109 0 -167 62.5t-58 173.5v399h41v-396q0 -94 46.5 -148t138.5 -54q94 0 139.5 55t45.5 155v388h41v-389v0zM286 682h-31l131 177h58z" />
    <glyph glyph-name="Ucircumflex" unicode="&#xdb;" horiz-adv-x="586" 
d="M519 236q0 -56 -14.5 -101.5t-43.5 -77.5t-71 -49.5t-98 -17.5q-109 0 -167 62.5t-58 173.5v399h41v-396q0 -94 46.5 -148t138.5 -54q94 0 139.5 55t45.5 155v388h41v-389v0zM397 682l-103 144h-2l-103 -144h-33l112 177h50l112 -177h-33z" />
    <glyph glyph-name="Udieresis" unicode="&#xdc;" horiz-adv-x="586" 
d="M519 236q0 -56 -14.5 -101.5t-43.5 -77.5t-71 -49.5t-98 -17.5q-109 0 -167 62.5t-58 173.5v399h41v-396q0 -94 46.5 -148t138.5 -54q94 0 139.5 55t45.5 155v388h41v-389v0zM418 766q0 -14 -9.5 -25.5t-24.5 -11.5q-16 0 -26 11.5t-10 25.5t10 24.5t26 10.5
q15 0 24.5 -10.5t9.5 -24.5zM237 766q0 -14 -9.5 -25.5t-25.5 -11.5t-25 11.5t-9 25.5t9 24.5t25 10.5t25.5 -10.5t9.5 -24.5z" />
    <glyph glyph-name="Yacute" unicode="&#xdd;" horiz-adv-x="507" 
d="M275 254v-254h-42v253l-219 372h47l194 -331l192 331h46zM253 682h-31l131 177h58z" />
    <glyph glyph-name="Thorn" unicode="&#xde;" horiz-adv-x="500" 
d="M461 324q0 -100 -67 -150.5t-183 -52.5l-87 -1v-120h-42v625h42v-113h98q119 0 179 -51t60 -137zM417 323q0 71 -51 111t-144 40h-98v-316l87 1q98 2 152 39.5t54 124.5z" />
    <glyph glyph-name="germandbls" unicode="&#xdf;" horiz-adv-x="566" 
d="M273 641q-16 8 -31.5 13t-36.5 5q-83 0 -83 -116v-543h-41v416l-66 4l3 26l62 8l1 87q1 43 10.5 72.5t26.5 48t39.5 26.5t48.5 8q22 0 42 -5t35 -13zM523 119q0 -30 -12.5 -54t-33.5 -40.5t-49 -25.5t-60 -9q-39 0 -75.5 11t-63.5 28l13 38q29 -19 61 -30t67 -11
q22 0 42.5 6t37 17t26.5 27.5t10 38.5q0 25 -10.5 41t-27.5 27.5t-39 19t-45 15.5t-46 18t-41.5 24.5t-30 35t-11.5 48.5q0 31 11.5 54t31 38.5t45.5 23.5t56 8q36 0 69.5 -9.5t60.5 -23.5l-14 -37q-29 16 -58.5 25.5t-61.5 9.5q-47 0 -75 -23t-28 -61q0 -22 10.5 -37.5
t27 -26.5t38.5 -18.5t44 -15.5q24 -8 47 -17.5t42 -24.5t30.5 -36.5t11.5 -53.5z" />
    <glyph glyph-name="agrave" unicode="&#xe0;" horiz-adv-x="427" 
d="M219 515l-158 177h58l131 -177h-31zM316 243q-67 -7 -113 -18.5t-74.5 -27.5t-41 -36.5t-12.5 -45.5q0 -43 31.5 -66t75.5 -23q43 0 77.5 22.5t56.5 48.5v146zM320 62q-10 -13 -25.5 -26t-34.5 -23.5t-40 -16.5t-43 -6q-30 0 -56.5 9t-45.5 24.5t-30 38t-11 49.5
q0 32 14.5 59.5t47.5 48.5t87 35t133 19v42q0 53 -26.5 84t-85.5 31q-21 0 -42.5 -5.5t-41.5 -13.5t-38 -18.5t-32 -21.5l-10 41q32 23 78.5 39.5t88.5 16.5q33 0 60.5 -8t47.5 -26t31 -46.5t11 -68.5v-248q0 -21 8.5 -35t39.5 -13l-3 -31q-34 -2 -56.5 15t-24.5 55h-1z" />
    <glyph glyph-name="aacute" unicode="&#xe1;" horiz-adv-x="427" 
d="M316 243q-67 -7 -113 -18.5t-74.5 -27.5t-41 -36.5t-12.5 -45.5q0 -43 31.5 -66t75.5 -23q43 0 77.5 22.5t56.5 48.5v146zM320 62q-10 -13 -25.5 -26t-34.5 -23.5t-40 -16.5t-43 -6q-30 0 -56.5 9t-45.5 24.5t-30 38t-11 49.5q0 32 14.5 59.5t47.5 48.5t87 35t133 19v42
q0 53 -26.5 84t-85.5 31q-21 0 -42.5 -5.5t-41.5 -13.5t-38 -18.5t-32 -21.5l-10 41q32 23 78.5 39.5t88.5 16.5q33 0 60.5 -8t47.5 -26t31 -46.5t11 -68.5v-248q0 -21 8.5 -35t39.5 -13l-3 -31q-34 -2 -56.5 15t-24.5 55h-1zM188 515h-31l131 177h58z" />
    <glyph glyph-name="acircumflex" unicode="&#xe2;" horiz-adv-x="427" 
d="M316 243q-67 -7 -113 -18.5t-74.5 -27.5t-41 -36.5t-12.5 -45.5q0 -43 31.5 -66t75.5 -23q43 0 77.5 22.5t56.5 48.5v146zM320 62q-10 -13 -25.5 -26t-34.5 -23.5t-40 -16.5t-43 -6q-30 0 -56.5 9t-45.5 24.5t-30 38t-11 49.5q0 32 14.5 59.5t47.5 48.5t87 35t133 19v42
q0 53 -26.5 84t-85.5 31q-21 0 -42.5 -5.5t-41.5 -13.5t-38 -18.5t-32 -21.5l-10 41q32 23 78.5 39.5t88.5 16.5q33 0 60.5 -8t47.5 -26t31 -46.5t11 -68.5v-248q0 -21 8.5 -35t39.5 -13l-3 -31q-34 -2 -56.5 15t-24.5 55h-1zM309 515l-103 144h-2l-103 -144h-33l112 177h50
l112 -177h-33z" />
    <glyph glyph-name="atilde" unicode="&#xe3;" horiz-adv-x="427" 
d="M316 243q-67 -7 -113 -18.5t-74.5 -27.5t-41 -36.5t-12.5 -45.5q0 -43 31.5 -66t75.5 -23q43 0 77.5 22.5t56.5 48.5v146zM320 62q-10 -13 -25.5 -26t-34.5 -23.5t-40 -16.5t-43 -6q-30 0 -56.5 9t-45.5 24.5t-30 38t-11 49.5q0 32 14.5 59.5t47.5 48.5t87 35t133 19v42
q0 53 -26.5 84t-85.5 31q-21 0 -42.5 -5.5t-41.5 -13.5t-38 -18.5t-32 -21.5l-10 41q32 23 78.5 39.5t88.5 16.5q33 0 60.5 -8t47.5 -26t31 -46.5t11 -68.5v-248q0 -21 8.5 -35t39.5 -13l-3 -31q-34 -2 -56.5 15t-24.5 55h-1zM358 624q-19 -104 -81 -104q-20 0 -40 11.5
t-39.5 25.5t-36.5 25.5t-31 11.5q-17 0 -27.5 -13t-25.5 -56h-25q19 104 81 104q20 0 40.5 -11.5t40 -25.5t36.5 -25.5t30 -11.5q16 0 27 13t25 56h26v0z" />
    <glyph glyph-name="adieresis" unicode="&#xe4;" horiz-adv-x="427" 
d="M316 243q-67 -7 -113 -18.5t-74.5 -27.5t-41 -36.5t-12.5 -45.5q0 -43 31.5 -66t75.5 -23q43 0 77.5 22.5t56.5 48.5v146zM320 62q-10 -13 -25.5 -26t-34.5 -23.5t-40 -16.5t-43 -6q-30 0 -56.5 9t-45.5 24.5t-30 38t-11 49.5q0 32 14.5 59.5t47.5 48.5t87 35t133 19v42
q0 53 -26.5 84t-85.5 31q-21 0 -42.5 -5.5t-41.5 -13.5t-38 -18.5t-32 -21.5l-10 41q32 23 78.5 39.5t88.5 16.5q33 0 60.5 -8t47.5 -26t31 -46.5t11 -68.5v-248q0 -21 8.5 -35t39.5 -13l-3 -31q-34 -2 -56.5 15t-24.5 55h-1zM330 599q0 -14 -9.5 -25.5t-24.5 -11.5
q-16 0 -26 11.5t-10 25.5t10 24.5t26 10.5q15 0 24.5 -10.5t9.5 -24.5zM149 599q0 -14 -9.5 -25.5t-25.5 -11.5t-25 11.5t-9 25.5t9 24.5t25 10.5t25.5 -10.5t9.5 -24.5z" />
    <glyph glyph-name="aring" unicode="&#xe5;" horiz-adv-x="427" 
d="M316 243q-67 -7 -113 -18.5t-74.5 -27.5t-41 -36.5t-12.5 -45.5q0 -43 31.5 -66t75.5 -23q43 0 77.5 22.5t56.5 48.5v146zM320 62q-10 -13 -25.5 -26t-34.5 -23.5t-40 -16.5t-43 -6q-30 0 -56.5 9t-45.5 24.5t-30 38t-11 49.5q0 32 14.5 59.5t47.5 48.5t87 35t133 19v42
q0 53 -26.5 84t-85.5 31q-21 0 -42.5 -5.5t-41.5 -13.5t-38 -18.5t-32 -21.5l-10 41q32 23 78.5 39.5t88.5 16.5q33 0 60.5 -8t47.5 -26t31 -46.5t11 -68.5v-248q0 -21 8.5 -35t39.5 -13l-3 -31q-34 -2 -56.5 15t-24.5 55h-1zM318 604q0 -40 -30 -68.5t-82 -28.5t-82 28.5
t-30 68.5t30 69t82 29t82 -29t30 -69zM283 602q0 28 -21 49.5t-56 21.5t-56 -20t-21 -48t21 -48.5t56 -20.5t56 19t21 47z" />
    <glyph glyph-name="ae" unicode="&#xe6;" horiz-adv-x="720" 
d="M337 91q-15 -22 -37 -41t-46 -32t-48 -20.5t-45 -7.5q-61 0 -94 34t-33 82q0 72 64.5 111.5t207.5 46.5l2 41q2 58 -23.5 90.5t-86.5 32.5q-42 0 -78.5 -18t-63.5 -39l-19 34q30 23 73 43t91 20q53 0 90.5 -22.5t48.5 -75.5q27 45 70.5 71.5t98.5 26.5q34 0 63 -11
t50.5 -31.5t33.5 -49.5t12 -66q0 -17 -3 -37t-7 -35l-312 -2v-7q0 -43 11.5 -80t33.5 -64t53.5 -42t70.5 -15t71 11t57 27l9 -37q-28 -17 -63 -28t-77 -11q-59 0 -104 26.5t-71 74.5zM623 273q3 17 3 34q0 54 -31.5 88.5t-86.5 34.5q-64 0 -106 -43.5t-53 -113.5h274z
M304 231q-66 -4 -110 -14.5t-70.5 -27t-38 -37t-11.5 -43.5q0 -41 27 -60t65 -19q34 0 77.5 21t80.5 67q-20 51 -20 113z" />
    <glyph glyph-name="ccedilla" unicode="&#xe7;" horiz-adv-x="445" 
d="M244 -9q-44 4 -81 23t-63.5 50t-41 72.5t-14.5 90.5q0 52 16 96t45 76.5t69 50.5t87 18q41 0 76 -10t62 -28l-10 -37q-25 16 -57.5 26.5t-70.5 10.5q-39 0 -71 -15t-55 -42t-36 -63.5t-13 -80.5t13 -81t36.5 -63.5t56.5 -41.5t74 -15q33 0 65 11t57 27l10 -37
q-25 -15 -54 -25.5t-61 -12.5l-60 -58q24 2 46.5 -2t39 -14.5t26.5 -27t10 -40.5q0 -39 -40 -70.5t-115 -36.5l-4 30q60 4 91.5 23t31.5 51q0 41 -41 52t-101 -2l-3 16l80 79v0z" />
    <glyph glyph-name="egrave" unicode="&#xe8;" horiz-adv-x="460" 
d="M86 229q0 -43 11.5 -80t33.5 -64t53.5 -42t70.5 -15t71 11t57 27l9 -37q-27 -17 -62.5 -28t-77.5 -11q-47 0 -85.5 17.5t-65.5 49t-42 75t-15 95.5t15 96t42.5 76.5t65 50.5t82.5 18q34 0 63 -11t50.5 -31.5t33.5 -49.5t12 -66q0 -17 -3 -37t-7 -35l-312 -2v-7zM363 273
q3 17 3 34q0 54 -31.5 88.5t-86.5 34.5q-64 0 -106 -43.5t-53 -113.5h274zM243 515l-158 177h58l131 -177h-31z" />
    <glyph glyph-name="eacute" unicode="&#xe9;" horiz-adv-x="460" 
d="M86 229q0 -43 11.5 -80t33.5 -64t53.5 -42t70.5 -15t71 11t57 27l9 -37q-27 -17 -62.5 -28t-77.5 -11q-47 0 -85.5 17.5t-65.5 49t-42 75t-15 95.5t15 96t42.5 76.5t65 50.5t82.5 18q34 0 63 -11t50.5 -31.5t33.5 -49.5t12 -66q0 -17 -3 -37t-7 -35l-312 -2v-7zM363 273
q3 17 3 34q0 54 -31.5 88.5t-86.5 34.5q-64 0 -106 -43.5t-53 -113.5h274zM244 515h-31l131 177h58z" />
    <glyph glyph-name="ecircumflex" unicode="&#xea;" horiz-adv-x="460" 
d="M86 229q0 -43 11.5 -80t33.5 -64t53.5 -42t70.5 -15t71 11t57 27l9 -37q-27 -17 -62.5 -28t-77.5 -11q-47 0 -85.5 17.5t-65.5 49t-42 75t-15 95.5t15 96t42.5 76.5t65 50.5t82.5 18q34 0 63 -11t50.5 -31.5t33.5 -49.5t12 -66q0 -17 -3 -37t-7 -35l-312 -2v-7zM363 273
q3 17 3 34q0 54 -31.5 88.5t-86.5 34.5q-64 0 -106 -43.5t-53 -113.5h274zM334 515l-103 144h-2l-103 -144h-33l112 177h50l112 -177h-33z" />
    <glyph glyph-name="edieresis" unicode="&#xeb;" horiz-adv-x="460" 
d="M86 229q0 -43 11.5 -80t33.5 -64t53.5 -42t70.5 -15t71 11t57 27l9 -37q-27 -17 -62.5 -28t-77.5 -11q-47 0 -85.5 17.5t-65.5 49t-42 75t-15 95.5t15 96t42.5 76.5t65 50.5t82.5 18q34 0 63 -11t50.5 -31.5t33.5 -49.5t12 -66q0 -17 -3 -37t-7 -35l-312 -2v-7zM363 273
q3 17 3 34q0 54 -31.5 88.5t-86.5 34.5q-64 0 -106 -43.5t-53 -113.5h274zM359 599q0 -14 -9.5 -25.5t-24.5 -11.5q-16 0 -26 11.5t-10 25.5t10 24.5t26 10.5q15 0 24.5 -10.5t9.5 -24.5zM178 599q0 -14 -9.5 -25.5t-25.5 -11.5t-25 11.5t-9 25.5t9 24.5t25 10.5t25.5 -10.5
t9.5 -24.5z" />
    <glyph glyph-name="igrave" unicode="&#xec;" horiz-adv-x="193" 
d="M76 0v455l41 13v-468h-41zM83 515l-158 177h58l131 -177h-31z" />
    <glyph glyph-name="iacute" unicode="&#xed;" horiz-adv-x="193" 
d="M76 0v455l41 13v-468h-41zM107 515h-31l131 177h58z" />
    <glyph glyph-name="icircumflex" unicode="&#xee;" horiz-adv-x="193" 
d="M76 0v455l41 13v-468h-41zM203 515l-103 144h-2l-103 -144h-33l112 177h50l112 -177h-33z" />
    <glyph glyph-name="idieresis" unicode="&#xef;" horiz-adv-x="193" 
d="M76 0v455l41 13v-468h-41zM224 599q0 -14 -9.5 -25.5t-24.5 -11.5q-16 0 -26 11.5t-10 25.5t10 24.5t26 10.5q15 0 24.5 -10.5t9.5 -24.5zM43 599q0 -14 -9.5 -25.5t-25.5 -11.5t-25 11.5t-9 25.5t9 24.5t25 10.5t25.5 -10.5t9.5 -24.5z" />
    <glyph glyph-name="eth" unicode="&#xf0;" horiz-adv-x="515" 
d="M471 248q0 -55 -13.5 -102t-40.5 -81.5t-68 -54.5t-96 -20q-45 0 -83.5 16t-66.5 45t-43.5 69.5t-15.5 89.5q0 53 17 94.5t46 70t67.5 43.5t82.5 15q40 0 76.5 -12.5t60.5 -26.5h1q-21 45 -52.5 89.5t-71.5 87.5l-133 -36l-9 36l112 30q-23 22 -47 43t-50 40l22 6l22 6
q48 -35 96 -83l108 29l9 -36l-44 -12q-17 -5 -30 -8.5t-14 -3.5q33 -37 62 -78t50.5 -83.5t33.5 -86.5t12 -86zM430 246q0 50 -18 102q-29 20 -68.5 34t-79.5 14q-85 0 -131.5 -50.5t-46.5 -135.5q0 -39 12.5 -73t35 -58.5t53 -38.5t67.5 -14q88 0 132 60.5t44 159.5z" />
    <glyph glyph-name="ntilde" unicode="&#xf1;" horiz-adv-x="492" 
d="M381 0v304q0 61 -26 93.5t-82 32.5q-39 0 -79.5 -20.5t-78.5 -58.5v-351h-41v455l41 13v-80q40 41 85 60.5t78 19.5q68 0 106 -39.5t38 -115.5v-313h-41zM399 624q-19 -104 -81 -104q-20 0 -40 11.5t-39.5 25.5t-36.5 25.5t-31 11.5q-17 0 -27.5 -13t-25.5 -56h-25
q19 104 81 104q20 0 40.5 -11.5t40 -25.5t36.5 -25.5t30 -11.5q16 0 27 13t25 56h26v0z" />
    <glyph glyph-name="ograve" unicode="&#xf2;" horiz-adv-x="534" 
d="M490 231q0 -54 -17.5 -98.5t-48.5 -76t-71.5 -49t-87.5 -17.5q-46 0 -86.5 16.5t-70.5 47.5t-47 75t-17 98t17.5 98.5t48.5 76t72 49t87 17.5q47 0 87 -16.5t70 -47.5t47 -75t17 -98zM449 229q0 47 -14 84.5t-38 63.5t-57.5 40t-72.5 14t-72.5 -15t-57.5 -42t-38 -64
t-14 -81q0 -47 13.5 -84.5t38 -63.5t58 -40t72.5 -14t72.5 15t57.5 42t38 64t14 81zM267 515l-158 177h58l131 -177h-31z" />
    <glyph glyph-name="oacute" unicode="&#xf3;" horiz-adv-x="534" 
d="M490 231q0 -54 -17.5 -98.5t-48.5 -76t-71.5 -49t-87.5 -17.5q-46 0 -86.5 16.5t-70.5 47.5t-47 75t-17 98t17.5 98.5t48.5 76t72 49t87 17.5q47 0 87 -16.5t70 -47.5t47 -75t17 -98zM449 229q0 47 -14 84.5t-38 63.5t-57.5 40t-72.5 14t-72.5 -15t-57.5 -42t-38 -64
t-14 -81q0 -47 13.5 -84.5t38 -63.5t58 -40t72.5 -14t72.5 15t57.5 42t38 64t14 81zM268 515h-31l131 177h58z" />
    <glyph glyph-name="ocircumflex" unicode="&#xf4;" horiz-adv-x="534" 
d="M490 231q0 -54 -17.5 -98.5t-48.5 -76t-71.5 -49t-87.5 -17.5q-46 0 -86.5 16.5t-70.5 47.5t-47 75t-17 98t17.5 98.5t48.5 76t72 49t87 17.5q47 0 87 -16.5t70 -47.5t47 -75t17 -98zM449 229q0 47 -14 84.5t-38 63.5t-57.5 40t-72.5 14t-72.5 -15t-57.5 -42t-38 -64
t-14 -81q0 -47 13.5 -84.5t38 -63.5t58 -40t72.5 -14t72.5 15t57.5 42t38 64t14 81zM371 515l-103 144h-2l-103 -144h-33l112 177h50l112 -177h-33z" />
    <glyph glyph-name="otilde" unicode="&#xf5;" horiz-adv-x="534" 
d="M490 231q0 -54 -17.5 -98.5t-48.5 -76t-71.5 -49t-87.5 -17.5q-46 0 -86.5 16.5t-70.5 47.5t-47 75t-17 98t17.5 98.5t48.5 76t72 49t87 17.5q47 0 87 -16.5t70 -47.5t47 -75t17 -98zM449 229q0 47 -14 84.5t-38 63.5t-57.5 40t-72.5 14t-72.5 -15t-57.5 -42t-38 -64
t-14 -81q0 -47 13.5 -84.5t38 -63.5t58 -40t72.5 -14t72.5 15t57.5 42t38 64t14 81zM420 624q-19 -104 -81 -104q-20 0 -40 11.5t-39.5 25.5t-36.5 25.5t-31 11.5q-17 0 -27.5 -13t-25.5 -56h-25q19 104 81 104q20 0 40.5 -11.5t40 -25.5t36.5 -25.5t30 -11.5q16 0 27 13
t25 56h26v0z" />
    <glyph glyph-name="odieresis" unicode="&#xf6;" horiz-adv-x="534" 
d="M490 231q0 -54 -17.5 -98.5t-48.5 -76t-71.5 -49t-87.5 -17.5q-46 0 -86.5 16.5t-70.5 47.5t-47 75t-17 98t17.5 98.5t48.5 76t72 49t87 17.5q47 0 87 -16.5t70 -47.5t47 -75t17 -98zM449 229q0 47 -14 84.5t-38 63.5t-57.5 40t-72.5 14t-72.5 -15t-57.5 -42t-38 -64
t-14 -81q0 -47 13.5 -84.5t38 -63.5t58 -40t72.5 -14t72.5 15t57.5 42t38 64t14 81zM392 599q0 -14 -9.5 -25.5t-24.5 -11.5q-16 0 -26 11.5t-10 25.5t10 24.5t26 10.5q15 0 24.5 -10.5t9.5 -24.5zM211 599q0 -14 -9.5 -25.5t-25.5 -11.5t-25 11.5t-9 25.5t9 24.5t25 10.5
t25.5 -10.5t9.5 -24.5z" />
    <glyph glyph-name="divide" unicode="&#xf7;" horiz-adv-x="488" 
d="M42 217l3 36h399l3 -36h-405zM281 107q0 -15 -10 -26.5t-26 -11.5t-25.5 11.5t-9.5 26.5q0 14 9.5 25t25.5 11t26 -11t10 -25zM281 361q0 -15 -10 -26.5t-26 -11.5t-25.5 11.5t-9.5 26.5q0 14 9.5 25t25.5 11t26 -11t10 -25z" />
    <glyph glyph-name="oslash" unicode="&#xf8;" horiz-adv-x="534" 
d="M490 231q0 -54 -17.5 -98.5t-48.5 -76t-71.5 -49t-87.5 -17.5q-56 0 -103 24l-47 -81h-39l57 99q-41 30 -65 79.5t-24 115.5q0 54 17.5 98.5t48.5 76t72 49t87 17.5q57 0 103 -24q8 13 16 27.5t16 26.5q9 14 16 28h39l-58 -100q41 -30 65 -79.5t24 -115.5zM353 410
q-37 21 -86 21q-39 0 -72.5 -15t-57.5 -42t-38 -64t-14 -81q0 -54 18 -95.5t50 -67.5l100 172q19 32 37 63t32 55.5t22.5 39zM449 229q0 54 -18 95.5t-50 67.5l-200 -345q40 -20 86 -20q39 0 72.5 15t57.5 42t38 64t14 81z" />
    <glyph glyph-name="ugrave" unicode="&#xf9;" horiz-adv-x="491" 
d="M111 458v-304q0 -61 26 -93.5t82 -32.5q39 0 79.5 20.5t78.5 58.5v351h41v-455l-41 -13v81q-40 -41 -85 -61t-78 -20q-68 0 -106 39.5t-38 115.5v313h41zM243 515l-158 177h58l131 -177h-31z" />
    <glyph glyph-name="uacute" unicode="&#xfa;" horiz-adv-x="491" 
d="M111 458v-304q0 -61 26 -93.5t82 -32.5q39 0 79.5 20.5t78.5 58.5v351h41v-455l-41 -13v81q-40 -41 -85 -61t-78 -20q-68 0 -106 39.5t-38 115.5v313h41zM238 515h-31l131 177h58z" />
    <glyph glyph-name="ucircumflex" unicode="&#xfb;" horiz-adv-x="491" 
d="M111 458v-304q0 -61 26 -93.5t82 -32.5q39 0 79.5 20.5t78.5 58.5v351h41v-455l-41 -13v81q-40 -41 -85 -61t-78 -20q-68 0 -106 39.5t-38 115.5v313h41zM349 515l-103 144h-2l-103 -144h-33l112 177h50l112 -177h-33z" />
    <glyph glyph-name="udieresis" unicode="&#xfc;" horiz-adv-x="491" 
d="M111 458v-304q0 -61 26 -93.5t82 -32.5q39 0 79.5 20.5t78.5 58.5v351h41v-455l-41 -13v81q-40 -41 -85 -61t-78 -20q-68 0 -106 39.5t-38 115.5v313h41zM366 599q0 -14 -9.5 -25.5t-24.5 -11.5q-16 0 -26 11.5t-10 25.5t10 24.5t26 10.5q15 0 24.5 -10.5t9.5 -24.5z
M185 599q0 -14 -9.5 -25.5t-25.5 -11.5t-25 11.5t-9 25.5t9 24.5t25 10.5t25.5 -10.5t9.5 -24.5z" />
    <glyph glyph-name="yacute" unicode="&#xfd;" horiz-adv-x="406" 
d="M228 15l-43 -117q-15 -40 -30.5 -66.5t-32 -42t-35 -21.5t-38.5 -6q-26 0 -44 5t-35 13l12 37q16 -8 31.5 -13t35.5 -5q13 0 25.5 4.5t25 17t25 34.5t25.5 57l34 92l-179 454h44l156 -401l153 401h43zM188 515h-31l131 177h58z" />
    <glyph glyph-name="thorn" unicode="&#xfe;" horiz-adv-x="503" 
d="M115 -233h-41v908l41 12v-279q21 20 57 37.5t81 17.5q44 0 82 -16.5t65.5 -47t43 -73t15.5 -95.5q0 -55 -16.5 -99.5t-46 -76t-69.5 -48.5t-88 -17q-34 0 -67.5 10.5t-56.5 24.5v-258zM115 65q22 -17 57 -27.5t70 -10.5q39 0 71 14.5t55 41.5t36 64.5t13 83.5
q0 42 -12 77.5t-33.5 61.5t-52.5 41t-69 15t-73.5 -16.5t-61.5 -41.5v-303z" />
    <glyph glyph-name="ydieresis" unicode="&#xff;" horiz-adv-x="406" 
d="M228 15l-43 -117q-15 -40 -30.5 -66.5t-32 -42t-35 -21.5t-38.5 -6q-26 0 -44 5t-35 13l12 37q16 -8 31.5 -13t35.5 -5q13 0 25.5 4.5t25 17t25 34.5t25.5 57l34 92l-179 454h44l156 -401l153 401h43zM327 599q0 -14 -9.5 -25.5t-24.5 -11.5q-16 0 -26 11.5t-10 25.5
t10 24.5t26 10.5q15 0 24.5 -10.5t9.5 -24.5zM146 599q0 -14 -9.5 -25.5t-25.5 -11.5t-25 11.5t-9 25.5t9 24.5t25 10.5t25.5 -10.5t9.5 -24.5z" />
    <glyph glyph-name="dotlessi" unicode="&#x131;" horiz-adv-x="193" 
d="M76 0v455l41 13v-468h-41z" />
    <glyph glyph-name="Lslash" unicode="&#x141;" horiz-adv-x="481" 
d="M144 39h306v-39h-348v259l-86 -24v37l86 24v329h42v-318l150 41v-37l-150 -41v-231z" />
    <glyph glyph-name="lslash" unicode="&#x142;" horiz-adv-x="228" 
d="M135 0h-41v259l-86 -24v37l86 23v379l41 13v-381l86 24v-37l-86 -23v-270z" />
    <glyph glyph-name="OE" unicode="&#x152;" horiz-adv-x="897" 
d="M847 587h-316v-255h264v-38h-264v-256h316v-38h-467q-76 0 -137 22.5t-104 63t-66.5 97.5t-23.5 125q0 76 23 135t66.5 99.5t106 61.5t141.5 21h461v-38zM92 312q0 -62 20 -112.5t57.5 -86.5t91.5 -55.5t123 -19.5h105v549h-105q-64 0 -117.5 -16t-92.5 -50t-60.5 -86
t-21.5 -123z" />
    <glyph glyph-name="oe" unicode="&#x153;" horiz-adv-x="864" 
d="M767 273q3 17 3 34q0 54 -31.5 88.5t-86.5 34.5q-64 0 -106 -43.5t-53 -113.5h274zM85 229q0 -47 13.5 -84.5t38 -63.5t58 -40t72.5 -14t72.5 15t57.5 42t38 64t14 81q0 47 -14 84.5t-38 63.5t-57.5 40t-72.5 14t-72.5 -15t-57.5 -42t-38 -64t-14 -81zM467 124
q-26 -63 -80 -98.5t-122 -35.5q-46 0 -86.5 16.5t-70.5 47.5t-47 75t-17 98t17.5 98.5t48.5 76t72 49t87 17.5q69 0 121.5 -35t78.5 -98q23 61 71 97t113 36q34 0 63 -11t50.5 -31.5t33.5 -49.5t12 -66q0 -17 -3 -37t-7 -35l-312 -2v-7q0 -43 11.5 -80t33.5 -64t53.5 -42
t70.5 -15t71 11t57 27l9 -37q-28 -17 -63 -28t-77 -11q-69 0 -117.5 36t-71.5 98z" />
    <glyph glyph-name="Scaron" unicode="&#x160;" horiz-adv-x="471" 
d="M230 27q36 0 66 10.5t51 28.5t32.5 41.5t11.5 49.5q0 32 -13 54.5t-35.5 39.5t-53 29.5t-65.5 24.5q-32 11 -63.5 24.5t-56 32.5t-40 46t-15.5 65q0 35 14.5 64.5t40 51t60 34t75.5 12.5q54 0 99 -14.5t80 -37.5l-16 -37q-35 24 -77.5 38t-85.5 14q-37 0 -65 -10t-47 -27
t-28.5 -39t-9.5 -46q0 -28 12.5 -49t34 -36.5t51.5 -28t65 -24.5q33 -11 65 -25t57 -34t40.5 -48.5t15.5 -69.5q0 -36 -15 -67.5t-41.5 -54.5t-63.5 -36t-82 -13q-57 0 -104.5 15t-86.5 41l16 36q35 -24 80 -39.5t97 -15.5zM260 672h-50l-112 177h33l103 -144h2l103 144h33z
" />
    <glyph glyph-name="scaron" unicode="&#x161;" horiz-adv-x="372" 
d="M329 119q0 -30 -12.5 -54t-33.5 -40.5t-49 -25.5t-60 -9q-39 0 -75.5 11t-63.5 28l13 38q29 -19 61 -30t67 -11q22 0 42.5 6t37 17t26.5 27.5t10 38.5q0 25 -10.5 41t-27.5 27.5t-39 19t-45 15.5t-46 18t-41.5 24.5t-30 35t-11.5 48.5q0 31 11.5 54t31 38.5t45.5 23.5
t56 8q36 0 69.5 -9.5t60.5 -23.5l-14 -37q-29 16 -58.5 25.5t-61.5 9.5q-47 0 -75 -23t-28 -61q0 -22 10.5 -37.5t27 -26.5t38.5 -18.5t44 -15.5q24 -8 47 -17.5t42 -24.5t30.5 -36.5t11.5 -53.5zM208 505h-50l-112 177h33l103 -144h2l103 144h33z" />
    <glyph glyph-name="Ydieresis" unicode="&#x178;" horiz-adv-x="507" 
d="M275 254v-254h-42v253l-219 372h47l194 -331l192 331h46zM378 766q0 -14 -9.5 -25.5t-24.5 -11.5q-16 0 -26 11.5t-10 25.5t10 24.5t26 10.5q15 0 24.5 -10.5t9.5 -24.5zM197 766q0 -14 -9.5 -25.5t-25.5 -11.5t-25 11.5t-9 25.5t9 24.5t25 10.5t25.5 -10.5t9.5 -24.5z
" />
    <glyph glyph-name="Zcaron" unicode="&#x17d;" horiz-adv-x="498" 
d="M26 0v30l388 558h-373v37h425v-30l-388 -558h387v-37h-439zM282 672h-50l-112 177h33l103 -144h2l103 144h33z" />
    <glyph glyph-name="zcaron" unicode="&#x17e;" horiz-adv-x="374" 
d="M21 0v28l280 395h-271v35h320v-28l-280 -395h280v-35h-329zM213 505h-50l-112 177h33l103 -144h2l103 144h33z" />
    <glyph glyph-name="florin" unicode="&#x192;" horiz-adv-x="362" 
d="M134 357l-95 4l3 25l99 8l18 93q9 40 22.5 67.5t31.5 44.5t39.5 24.5t45.5 7.5q25 0 48.5 -7.5t41.5 -21.5l-17 -35q-16 11 -34.5 18.5t-41.5 7.5q-38 0 -61 -29t-34 -79l-20 -92h119l-4 -36h-122l-47 -241q-6 -30 -15 -52t-22.5 -38t-32 -26.5t-44.5 -16.5l-9 37
q43 11 60 35t25 66z" />
    <glyph glyph-name="circumflex" unicode="&#x2c6;" 
d="M304 515l-103 144h-2l-103 -144h-33l112 177h50l112 -177h-33z" />
    <glyph glyph-name="caron" unicode="&#x2c7;" 
d="M225 505h-50l-112 177h33l103 -144h2l103 144h33z" />
    <glyph glyph-name="breve" unicode="&#x2d8;" 
d="M337 691q-7 -29 -17 -60t-26 -57t-39 -43t-55 -17t-55 17t-39 43t-26 57t-17 60h29q22 -78 47.5 -111t60.5 -33t60.5 33t47.5 111h29v0z" />
    <glyph glyph-name="dotaccent" unicode="&#x2d9;" 
d="M234 599q0 -14 -9.5 -25.5t-25.5 -11.5t-25 11.5t-9 25.5t9 24.5t25 10.5t25.5 -10.5t9.5 -24.5z" />
    <glyph glyph-name="ring" unicode="&#x2da;" 
d="M313 604q0 -40 -30 -68.5t-82 -28.5t-82 28.5t-30 68.5t30 69t82 29t82 -29t30 -69zM278 602q0 28 -21 49.5t-56 21.5t-56 -20t-21 -48t21 -48.5t56 -20.5t56 19t21 47z" />
    <glyph glyph-name="ogonek" unicode="&#x2db;" 
d="M303 -205q-18 -15 -41.5 -24t-49.5 -9q-20 0 -39 7t-34 20t-24 31t-9 39q0 27 12 51t31.5 44t44.5 36t51 26h39q-66 -32 -103.5 -68t-37.5 -86q0 -32 22.5 -50.5t54.5 -18.5q23 0 40.5 7t36.5 16l6 -21v0z" />
    <glyph glyph-name="tilde" unicode="&#x2dc;" 
d="M353 624q-19 -104 -81 -104q-20 0 -40 11.5t-39.5 25.5t-36.5 25.5t-31 11.5q-17 0 -27.5 -13t-25.5 -56h-25q19 104 81 104q20 0 40.5 -11.5t40 -25.5t36.5 -25.5t30 -11.5q16 0 27 13t25 56h26v0z" />
    <glyph glyph-name="hungarumlaut" unicode="&#x2dd;" 
d="M242 505h-32l118 177h49zM94 505h-32l118 177h49z" />
    <glyph glyph-name="endash" unicode="&#x2013;" horiz-adv-x="428" 
d="M32 224l3 38h359l3 -38h-365z" />
    <glyph glyph-name="emdash" unicode="&#x2014;" horiz-adv-x="898" 
d="M32 224l3 38h829l3 -38h-835z" />
    <glyph glyph-name="quoteleft" unicode="&#x2018;" horiz-adv-x="153" 
d="M121 471q0 -14 -11.5 -27t-29.5 -13q-23 0 -40 18t-17 49q0 38 27 79t73 70l19 -17q-42 -31 -58 -58t-16 -54q0 -20 13.5 -30t39.5 -17z" />
    <glyph glyph-name="quoteright" unicode="&#x2019;" horiz-adv-x="153" 
d="M32 609q0 14 11.5 27t29.5 13q23 0 40 -18t17 -49q0 -38 -27 -79t-73 -70l-19 17q42 31 58 58t16 54q0 20 -13.5 30t-39.5 17z" />
    <glyph glyph-name="quotesinglbase" unicode="&#x201a;" horiz-adv-x="153" 
d="M32 28q0 14 11.5 27t29.5 13q23 0 40 -18t17 -49q0 -38 -27 -79t-73 -70l-19 17q42 31 58 58t16 54q0 20 -13.5 30t-39.5 17z" />
    <glyph glyph-name="quotedblleft" unicode="&#x201c;" horiz-adv-x="333" 
d="M301 471q0 -14 -11.5 -27t-29.5 -13q-23 0 -40 18t-17 49q0 38 27 79t73 70l19 -17q-42 -31 -58 -58t-16 -54q0 -20 13.5 -30t39.5 -17zM121 471q0 -14 -11.5 -27t-29.5 -13q-23 0 -40 18t-17 49q0 38 27 79t73 70l19 -17q-42 -31 -58 -58t-16 -54q0 -20 13.5 -30
t39.5 -17z" />
    <glyph glyph-name="quotedblright" unicode="&#x201d;" horiz-adv-x="333" 
d="M212 609q0 14 11.5 27t29.5 13q23 0 40 -18t17 -49q0 -38 -27 -79t-73 -70l-19 17q42 31 58 58t16 54q0 20 -13.5 30t-39.5 17zM32 609q0 14 11.5 27t29.5 13q23 0 40 -18t17 -49q0 -38 -27 -79t-73 -70l-19 17q42 31 58 58t16 54q0 20 -13.5 30t-39.5 17z" />
    <glyph glyph-name="quotedblbase" unicode="&#x201e;" horiz-adv-x="333" 
d="M212 28q0 14 11.5 27t29.5 13q23 0 40 -18t17 -49q0 -38 -27 -79t-73 -70l-19 17q42 31 58 58t16 54q0 20 -13.5 30t-39.5 17zM32 28q0 14 11.5 27t29.5 13q23 0 40 -18t17 -49q0 -38 -27 -79t-73 -70l-19 17q42 31 58 58t16 54q0 20 -13.5 30t-39.5 17z" />
    <glyph glyph-name="dagger" unicode="&#x2020;" horiz-adv-x="469" 
d="M38 397l-3 36h179v192h40v-192h180l-3 -36h-177v-523h-40v523h-176z" />
    <glyph glyph-name="daggerdbl" unicode="&#x2021;" horiz-adv-x="469" 
d="M38 412l-3 36h179v177h40v-177h180l-3 -36h-177v-326h177l3 -36h-180v-176h-40v176h-179l3 36h176v326h-176z" />
    <glyph glyph-name="bullet" unicode="&#x2022;" horiz-adv-x="455" 
d="M420 232q0 -11 -6 -30.5t-14.5 -40.5t-18 -39.5t-17.5 -26.5q-7 -7 -25.5 -17t-39.5 -18.5t-41 -14.5t-31 -6q-10 0 -30 6t-41 14.5t-39 18.5t-25 17q-7 8 -17 26.5t-19 39.5t-15 40.5t-6 30.5t6 30.5t15 40.5t19 39.5t17 25.5q8 8 26 17.5t39 18t41 14.5t30 6
q11 0 30.5 -6t40.5 -14.5t39.5 -18t25.5 -17.5q8 -7 17.5 -25.5t18 -39.5t14.5 -40.5t6 -30.5z" />
    <glyph glyph-name="ellipsis" unicode="&#x2026;" horiz-adv-x="459" 
d="M418 28q0 -15 -10 -26.5t-26 -11.5t-25.5 11.5t-9.5 26.5q0 14 9.5 25t25.5 11t26 -11t10 -25zM265 28q0 -15 -10 -26.5t-26 -11.5t-25.5 11.5t-9.5 26.5q0 14 9.5 25t25.5 11t26 -11t10 -25zM112 28q0 -15 -10 -26.5t-26 -11.5t-25.5 11.5t-9.5 26.5q0 14 9.5 25
t25.5 11t26 -11t10 -25z" />
    <glyph glyph-name="perthousand" unicode="&#x2030;" horiz-adv-x="1117" 
d="M349 482q0 -33 -11.5 -63t-33 -52.5t-52 -36t-69.5 -13.5q-38 0 -69 13.5t-52.5 36t-33 52.5t-11.5 63q0 34 11.5 64.5t33 53t52.5 36t69 13.5q39 0 69.5 -13.5t52 -36t33 -53t11.5 -64.5zM139 -15h-46l516 654h45zM729 142q0 -34 -11.5 -64.5t-33 -53t-52.5 -36
t-69 -13.5q-39 0 -69.5 13.5t-52 36t-33 53t-11.5 64.5q0 33 11.5 63t33 52.5t52 36t69.5 13.5q38 0 69 -13.5t52.5 -36t33 -52.5t11.5 -63zM313 482q0 28 -9 52t-25.5 42t-41 28.5t-54.5 10.5t-54.5 -10.5t-41 -28.5t-25.5 -42t-9 -52q0 -26 9 -50t25.5 -42t41 -28.5
t54.5 -10.5t54.5 10.5t41 28.5t25.5 42t9 50zM693 142q0 26 -9 50t-25.5 42t-41 28.5t-54.5 10.5t-54.5 -10.5t-41 -28.5t-25.5 -42t-9 -50q0 -28 9 -52t25.5 -42t41 -28.5t54.5 -10.5t54.5 10.5t41 28.5t25.5 42t9 52zM1100 142q0 -34 -11.5 -64.5t-33 -53t-52.5 -36
t-69 -13.5q-39 0 -69.5 13.5t-52 36t-33 53t-11.5 64.5q0 33 11.5 63t33 52.5t52 36t69.5 13.5q38 0 69 -13.5t52.5 -36t33 -52.5t11.5 -63zM1064 142q0 26 -9 50t-25.5 42t-41 28.5t-54.5 10.5t-54.5 -10.5t-41 -28.5t-25.5 -42t-9 -50q0 -28 9 -52t25.5 -42t41 -28.5
t54.5 -10.5t54.5 10.5t41 28.5t25.5 42t9 52z" />
    <glyph glyph-name="guilsinglleft" unicode="&#x2039;" horiz-adv-x="313" 
d="M260 28l-228 188v36l228 188l8 -35l-199 -170v-1l199 -171z" />
    <glyph glyph-name="guilsinglright" unicode="&#x203a;" horiz-adv-x="313" 
d="M53 28l-8 35l199 171v1l-199 170l8 35l228 -188v-36z" />
    <glyph glyph-name="fraction" unicode="&#x2044;" horiz-adv-x="581" 
d="M56 -15h-46l516 654h45z" />
    <glyph glyph-name="Euro" unicode="&#x20ac;" horiz-adv-x="506" 
d="M39 375l-3 35h74q17 108 74 169.5t153 61.5q42 0 76 -8t60 -22l-9 -37q-27 14 -59 22.5t-68 8.5q-80 0 -126.5 -49t-60.5 -146h243l-3 -35h-244q-1 -14 -1.5 -29t-0.5 -31q0 -17 0.5 -32.5t1.5 -30.5h214l3 -35h-213q14 -97 59 -146.5t124 -49.5q41 0 73 7.5t59 20.5
l6 -36q-27 -13 -61 -20.5t-79 -7.5q-97 0 -151.5 61t-70.5 171h-73l3 35h66q-1 14 -1.5 28.5t-0.5 30.5q0 34 3 64h-67z" />
    <glyph glyph-name="trademark" unicode="&#x2122;" horiz-adv-x="867" 
d="M759 251l-19 331h-3l-128 -331h-43l-116 331h-3l-18 -331h-34l23 374h52l118 -340h3l129 340h50l22 -374h-33zM199 593v-342h-34v342h-142v32h317v-32h-141z" />
    <glyph glyph-name="minus" unicode="&#x2212;" horiz-adv-x="488" 
d="M42 217l3 36h399l3 -36h-405z" />
    <glyph glyph-name="apple" unicode="&#xf8ff;" horiz-adv-x="758" 
d="M583 148l69 -189l-189 69l-85 -181l-84 180l-187 -68l68 187l-181 86l181 83l-68 189l187 -69l86 181l83 -181l189 69l-69 -189l180 -82zM531 294l50 139l-139 -50l-63 133l-63 -133l-139 50l51 -139l-134 -63l134 -63l-51 -138l139 51l62 -135l64 135l139 -51l-50 140
l132 62z" />
    <glyph glyph-name="ff" unicode="&#xfb00;" horiz-adv-x="560" 
d="M122 0h-41v417l-66 4l3 25l62 8l1 77q1 43 10.5 72.5t26.5 48t39.5 26.5t48.5 8q22 0 42 -5t35 -13l-10 -37q-16 8 -31.5 13t-36.5 5q-83 0 -83 -116v-80l239 1l1 87q1 43 10.5 72.5t26.5 48t39.5 26.5t48.5 8q22 0 42 -5t35 -13l-10 -37q-16 8 -31.5 13t-36.5 5
q-83 0 -83 -116v-90h142l-3 -36h-139v-417h-41v417h-240v-417z" />
    <glyph glyph-name="fi" unicode="&#xfb01;" horiz-adv-x="460" 
d="M122 417v-417h-41v417l-66 4l3 25l62 8l1 87q1 43 10.5 72.5t26.5 48t39.5 26.5t48.5 8q22 0 42 -5t35 -13l-10 -37q-16 8 -31.5 13t-36.5 5q-83 0 -83 -116v-90h215l47 15v-468h-41v417h-221z" />
    <glyph glyph-name="fl" unicode="&#xfb02;" horiz-adv-x="457" 
d="M273 641q-16 8 -31.5 13t-36.5 5q-83 0 -83 -116v-90h142l-3 -36h-139v-417h-41v417l-66 4l3 25l62 8l1 87q1 43 10.5 72.5t26.5 48t39.5 26.5t48.5 8q22 0 42 -5t35 -13zM343 0v674l41 13v-687h-41z" />
    <glyph glyph-name="ffi" unicode="&#xfb03;" horiz-adv-x="741" 
d="M122 0h-41v417l-66 4l3 25l62 8l1 77q0 43 10 72.5t26.5 48t39.5 26.5t49 8q22 0 42 -5t35 -13l-10 -37q-16 8 -31.5 13t-36.5 5q-83 0 -83 -116v-80l239 1l1 87q1 43 10.5 72.5t26.5 48t39.5 26.5t48.5 8q22 0 42 -5t35 -13l-10 -37q-16 8 -31.5 13t-36.5 5
q-83 0 -83 -116v-90h215l47 15v-468h-41v417h-221v-417h-41v417h-240v-417z" />
    <glyph glyph-name="ffl" unicode="&#xfb04;" horiz-adv-x="738" 
d="M624 0v674l41 13v-687h-41zM122 0h-41v417l-66 4l3 25l62 8l1 77q1 43 10.5 72.5t26.5 48t39.5 26.5t48.5 8q22 0 42 -5t35 -13l-10 -37q-16 8 -31.5 13t-36.5 5q-83 0 -83 -116v-80l239 1l1 87q1 43 10.5 72.5t26.5 48t39.5 26.5t48.5 8q22 0 42 -5t35 -13l-10 -37
q-16 8 -31.5 13t-36.5 5q-83 0 -83 -116v-90h142l-3 -36h-139v-417h-41v417h-240v-417z" />
    </font>
</defs>
</svg>
