<svg width="91" height="68" viewBox="0 0 91 68" fill="none" xmlns="http://www.w3.org/2000/svg">
<path d="M15.5009 59.3104C12.2062 57.4523 9.55975 55.2031 7.56154 52.5628C5.56333 49.9225 4.32409 46.9865 3.84381 43.7547L11.6192 42.2181C12.1314 44.8099 13.0359 46.9978 14.3326 48.7819C15.7074 50.5442 17.518 52.0588 19.7644 53.3257C20.6629 53.8325 21.5429 54.1972 22.4043 54.4198C23.3438 54.6207 24.2148 54.6513 25.0173 54.5117C25.8697 54.4003 26.6146 54.1295 27.252 53.6994C27.9175 53.2194 28.4614 52.605 28.8837 51.8562C29.6157 50.5582 29.7327 49.2425 29.2347 47.9088C28.9325 47.2779 28.345 46.453 27.472 45.4343C26.677 44.3938 25.5576 43.1703 24.1137 41.7638C21.6407 39.3821 19.7481 37.1962 18.436 35.206C17.1239 33.2159 16.3065 31.3402 15.9838 29.5791C15.7699 28.2083 15.798 26.8752 16.0679 25.5799C16.366 24.2347 16.8951 22.8882 17.6553 21.5404C18.5843 19.893 19.7784 18.5925 21.2374 17.6388C22.7745 16.6634 24.4486 16.0284 26.2596 15.7338C28.1487 15.4175 30.0968 15.4634 32.1037 15.8715C34.1606 16.3078 36.1625 17.0749 38.1094 18.1729C39.9564 19.2145 41.6377 20.4917 43.1533 22.0045C44.7187 23.5453 46.0078 25.2264 47.0204 27.0476C48.033 28.8689 48.6438 30.478 49.0351 32.4669C47.9024 32.6886 41.4851 33.8873 41.4851 33.8873C41.1116 32.8038 40.6634 31.751 40.0996 30.7441C39.4236 29.3759 38.6242 28.1684 37.7013 27.1215C36.7784 26.0746 35.8427 25.2837 34.8942 24.7488C33.8459 24.1575 32.8411 23.7225 31.8798 23.4435C30.9186 23.1646 30.0258 23.0559 29.2016 23.1174C28.4272 23.2071 27.7214 23.467 27.084 23.8971C26.4467 24.3272 25.9168 24.9166 25.4945 25.6654C25.1784 26.3425 24.9763 27.051 24.888 27.7908C24.8779 28.5088 25.0098 29.2083 25.2837 29.8892C25.6076 30.5982 26.192 31.4871 27.0368 32.5558C27.8817 33.6244 29.0401 34.837 30.5122 36.1936C32.6422 38.2502 34.2806 40.1284 35.4276 41.828C36.6527 43.5058 37.4579 45.1114 37.8433 46.6447C38.3068 48.1563 38.3863 49.6487 38.0818 51.1219C37.7773 52.5951 37.1887 54.1055 36.3159 55.653C35.049 57.8994 33.2598 59.5551 30.9484 60.6202C28.715 61.6636 26.2435 62.0791 23.5339 61.8669C20.8243 61.6547 18.1466 60.8026 15.5009 59.3104Z" fill="#FAC2C3"/>
<path d="M52.9217 49.5592C49.627 47.701 46.9806 45.4518 44.9824 42.8115C42.9842 40.1712 42.1355 37.0124 41.4858 33.8876L49.0358 32.4676C49.5826 35.0415 50.4567 37.2466 51.7534 39.0306C53.1282 40.793 54.9388 42.3076 57.1852 43.5745C58.0838 44.0813 58.9638 44.4459 59.8252 44.6686C60.7647 44.8694 61.6356 44.9001 62.4381 44.7605C63.2906 44.649 64.0354 44.3783 64.6728 43.9482C65.3383 43.4681 65.8822 42.8537 66.3045 42.1049C67.0365 40.807 67.1535 39.4912 66.6555 38.1576C66.3534 37.5266 65.7658 36.7018 64.8928 35.683C64.0979 34.6425 62.9785 33.419 61.5346 32.0125C59.0615 29.6308 57.169 27.4449 55.8569 25.4548C54.5448 23.4646 53.7273 21.589 53.4046 19.8278C53.1908 18.457 53.2188 17.124 53.4887 15.8287C53.7868 14.4835 54.3159 13.1369 55.0761 11.7891C56.0052 10.1418 57.1992 8.84125 58.6582 7.88757C60.1953 6.91213 61.8694 6.27712 63.6805 5.98257C65.5696 5.66625 67.5176 5.71214 69.5246 6.12025C71.5815 6.55651 73.5833 7.32363 75.5302 8.42162C77.3772 9.4633 79.0585 10.7405 80.5741 12.2532C82.1396 13.7941 83.4286 15.4752 84.4412 17.2964C85.4538 19.1176 86.1183 20.9728 86.4346 22.8619L79.2717 25.2375C78.8582 23.7541 78.2744 22.3392 77.5204 20.9928C76.8445 19.6246 76.045 18.4171 75.1221 17.3702C74.1992 16.3233 73.2635 15.5324 72.315 14.9975C71.2667 14.4063 70.2619 13.9712 69.3007 13.6923C68.3394 13.4134 67.4467 13.3046 66.6224 13.3662C65.8481 13.4558 65.1422 13.7157 64.5049 14.1458C63.8675 14.5759 63.3377 15.1654 62.9154 15.9142C62.5993 16.5913 62.3971 17.2998 62.3089 18.0396C62.2987 18.7576 62.4306 19.4571 62.7046 20.138C63.0285 20.847 63.6128 21.7359 64.4577 22.8045C65.3025 23.8732 66.461 25.0858 67.933 26.4424C70.063 28.499 71.7015 30.3771 72.8485 32.0767C74.0735 33.7546 74.8787 35.3602 75.2641 36.8935C75.7276 38.405 75.8071 39.8974 75.5026 41.3706C75.1981 42.8439 74.6095 44.3542 73.7368 45.9017C72.4698 48.1481 70.6807 49.8039 68.3692 50.869C66.1359 51.9123 63.6644 52.3279 60.9548 52.1157C58.2452 51.9035 55.5675 51.0513 52.9217 49.5592Z" fill="#FAC2C3"/>
</svg>
