<svg width="68" height="19" viewBox="0 0 68 19" fill="none" xmlns="http://www.w3.org/2000/svg">
<path d="M56.605 7.84725C57.2806 7.20221 58.0738 6.71354 58.9746 6.39101C59.8755 6.06849 60.796 5.90234 61.736 5.90234C62.7054 5.90234 63.5279 6.01963 64.2036 6.26396C64.8793 6.49852 65.4178 6.86991 65.8389 7.36836C66.2599 7.8668 66.5635 8.50207 66.7495 9.2644C66.9454 10.0267 67.0433 10.9259 67.0433 11.9814V17.777H63.5769V16.5554H63.5084C63.2146 17.0343 62.774 17.4057 62.1766 17.6598C61.5793 17.9236 60.9429 18.0507 60.2476 18.0507C59.7874 18.0507 59.3076 17.9921 58.818 17.865C58.3284 17.7379 57.8779 17.5425 57.4667 17.2688C57.0554 16.9952 56.7225 16.6238 56.4581 16.1644C56.1937 15.7051 56.0664 15.1382 56.0664 14.4541C56.0664 13.6233 56.2916 12.949 56.7519 12.4408C57.2023 11.9325 57.7898 11.5416 58.5144 11.2679C59.2292 10.9943 60.0322 10.8086 60.9037 10.7109C61.785 10.6229 62.6369 10.574 63.4692 10.574V10.3883C63.4692 9.82148 63.2734 9.40122 62.8719 9.12757C62.4704 8.85391 61.9808 8.72686 61.3933 8.72686C61.6772 8.72686 60.3357 8.84414 59.8363 9.06893C59.337 9.30349 58.9061 9.57715 58.5536 9.89967L56.605 7.84725ZM63.5671 12.7633H63.0775C62.6565 12.7633 62.2452 12.7828 61.8143 12.8219C61.3933 12.861 61.0114 12.9294 60.6785 13.0369C60.3455 13.1444 60.0714 13.3008 59.8559 13.5061C59.6405 13.7113 59.5328 13.985 59.5328 14.327C59.5328 14.542 59.5817 14.7277 59.6797 14.8841C59.7776 15.0405 59.9049 15.1578 60.0616 15.2555C60.2182 15.3435 60.3945 15.4119 60.5903 15.451C60.7862 15.4901 60.982 15.5096 61.1681 15.5096C61.9416 15.5096 62.5292 15.2946 62.9404 14.8743C63.3517 14.4541 63.5573 13.8774 63.5573 13.1542V12.7633H63.5671Z" fill="black"/>
<path d="M51.4831 17.777V11.4927C51.4831 11.1702 51.4635 10.8574 51.4146 10.5544C51.3656 10.2515 51.2872 9.99736 51.16 9.78235C51.0327 9.56733 50.8662 9.39141 50.6606 9.26436C50.4549 9.1373 50.1807 9.06889 49.838 9.06889C49.5149 9.06889 49.2309 9.1373 48.9959 9.27413C48.7609 9.41096 48.5553 9.59666 48.3986 9.83122C48.2321 10.0658 48.1146 10.3297 48.0363 10.6326C47.958 10.9356 47.9188 11.2484 47.9188 11.5709V17.777H44.1293V11.219C44.1293 10.5544 44.002 10.0365 43.7376 9.64552C43.4732 9.26436 43.0619 9.06889 42.4842 9.06889C41.8869 9.06889 41.4169 9.30345 41.0839 9.78235C40.751 10.2612 40.5845 10.8477 40.5845 11.5416V17.777H36.7656V6.28347H40.4474V7.87653H40.4964C40.6335 7.6322 40.8097 7.38786 41.0154 7.16307C41.221 6.92851 41.4756 6.73305 41.7694 6.54735C42.0631 6.37143 42.3863 6.22483 42.7486 6.11732C43.1109 6.00981 43.5124 5.95117 43.9432 5.95117C44.7755 5.95117 45.4806 6.11732 46.0583 6.45939C46.636 6.80146 47.0865 7.28036 47.4096 7.91563C47.7915 7.31945 48.2909 6.84055 48.8882 6.48871C49.4855 6.13687 50.2199 5.96095 51.0816 5.96095C51.865 5.96095 52.5308 6.10755 53.0596 6.39098C53.5884 6.6744 54.0192 7.0458 54.3424 7.49537C54.6655 7.94495 54.9005 8.45316 55.0474 9.02002C55.1943 9.58688 55.2628 10.1342 55.2628 10.6717V17.7868H51.4831V17.777Z" fill="black"/>
<path d="M35.8058 12.1671C35.8058 12.3235 35.8058 12.4798 35.8058 12.6264C35.8058 12.7828 35.7961 12.9294 35.7863 13.0662H27.4336C27.463 13.3888 27.5609 13.682 27.7274 13.9458C27.8939 14.2097 28.0995 14.4345 28.3541 14.63C28.6087 14.8255 28.8926 14.9721 29.206 15.0796C29.5193 15.1871 29.8523 15.2457 30.1852 15.2457C30.7825 15.2457 31.2917 15.1382 31.7128 14.9134C32.1338 14.6886 32.4667 14.4052 32.7311 14.0436L35.3652 15.7051C34.8266 16.4869 34.1118 17.0929 33.2207 17.5131C32.3297 17.9334 31.3015 18.1484 30.1362 18.1484C29.2745 18.1484 28.452 18.0116 27.6882 17.7477C26.9147 17.474 26.239 17.0831 25.6613 16.5749C25.0835 16.0569 24.6233 15.4216 24.3002 14.6691C23.9672 13.9165 23.8008 13.0565 23.8008 12.0791C23.8008 11.1409 23.9672 10.2906 24.2904 9.52826C24.6135 8.76594 25.0542 8.12089 25.6123 7.59313C26.1705 7.06536 26.8265 6.65488 27.5805 6.36168C28.3345 6.06848 29.157 5.92188 30.0285 5.92188C30.8804 5.92188 31.654 6.06848 32.3688 6.3519C33.0739 6.63533 33.6908 7.04582 34.1999 7.58335C34.7091 8.12089 35.1008 8.77571 35.3946 9.54781C35.659 10.3004 35.8058 11.18 35.8058 12.1671ZM32.3101 10.7108C32.3101 10.1147 32.124 9.59668 31.7421 9.16665C31.3602 8.73662 30.8021 8.5216 30.0383 8.5216C29.6662 8.5216 29.3333 8.58024 29.0199 8.69752C28.7066 8.8148 28.4422 8.97118 28.2072 9.16665C27.9722 9.36211 27.7861 9.60645 27.6491 9.87033C27.512 10.144 27.4336 10.4176 27.414 10.7108H32.3101Z" fill="black"/>
<path d="M23.7194 9.3914C23.5529 9.34254 23.3864 9.31322 23.22 9.30344C23.0535 9.2839 22.8968 9.2839 22.75 9.2839C22.2408 9.2839 21.8099 9.37186 21.4672 9.55755C21.1245 9.74325 20.8405 9.96804 20.6349 10.2221C20.4292 10.486 20.2726 10.7695 20.1844 11.0724C20.0963 11.3754 20.0473 11.6491 20.0473 11.8738V17.7672H16.2578V6.29323H19.9103V7.95471H19.9592C20.253 7.36831 20.6642 6.88941 21.2126 6.51802C21.7512 6.14663 22.3779 5.96094 23.0829 5.96094C23.2396 5.96094 23.3864 5.97071 23.5333 5.98049C23.6802 6.00003 23.7977 6.01958 23.8956 6.0489L23.7194 9.3914Z" fill="black"/>
<path d="M12.8521 17.4838C11.7848 17.9725 10.5608 18.2071 9.17031 18.2071C7.90713 18.2071 6.74187 18.0018 5.66475 17.5816C4.59741 17.1613 3.66717 16.5749 2.87401 15.8126C2.09064 15.0503 1.47374 14.1413 1.02331 13.076C0.572874 12.0107 0.347656 10.8477 0.347656 9.56739C0.347656 8.25775 0.572874 7.07517 1.0331 6.00987C1.48354 4.94457 2.12002 4.04541 2.92297 3.29286C3.72592 2.55008 4.66596 1.97345 5.74308 1.57274C6.82021 1.17203 7.98547 0.976562 9.23885 0.976562C10.3943 0.976562 11.5302 1.1818 12.6465 1.59229C13.7628 2.00277 14.6734 2.59895 15.3687 3.38082L12.6857 6.05873C12.3136 5.55052 11.8337 5.16935 11.2266 4.92502C10.6293 4.68068 10.0124 4.55363 9.37594 4.55363C8.6807 4.55363 8.04422 4.68068 7.46649 4.93479C6.88875 5.1889 6.38936 5.54074 5.97809 5.98055C5.55703 6.43012 5.2339 6.95789 5.00868 7.56384C4.77367 8.16979 4.66596 8.83438 4.66596 9.55761C4.66596 10.3004 4.78346 10.9748 5.00868 11.5905C5.24369 12.2062 5.55703 12.734 5.9683 13.1738C6.37957 13.6136 6.86917 13.9556 7.43711 14.2C8.00505 14.4443 8.63174 14.5714 9.30739 14.5714C10.0908 14.5714 10.7762 14.415 11.3637 14.112C11.9513 13.809 12.4213 13.4083 12.7738 12.9099L15.5254 15.4998C14.8105 16.3501 13.9195 17.0049 12.8521 17.4838Z" fill="black"/>
</svg>
