<svg width="76" height="28" viewBox="0 0 76 28" fill="none" xmlns="http://www.w3.org/2000/svg">
<path d="M30.1014 20.7344C31.0053 21.674 32.0903 22.4205 33.2909 22.9288C34.4915 23.4371 35.7827 23.6967 37.0864 23.6918C39.6716 23.6918 40.9176 22.482 40.9176 21.2152C40.9176 19.5814 39.0046 19.0179 36.466 18.4233C32.8933 17.6116 28.2711 16.624 28.2711 11.7019C28.2711 8.04138 31.425 5.08398 36.6108 5.08398C40.1007 5.08398 43.0012 6.11804 45.1676 8.15513L42.5824 11.5882C40.8575 10.0426 38.6218 9.18994 36.3057 9.19436C34.1911 9.19436 33.064 10.125 33.064 11.4227C33.064 12.9118 34.8942 13.3668 37.4328 13.9562C41.052 14.7731 45.6536 15.8692 45.6536 20.7448C45.6536 24.7672 42.7789 27.7815 36.8641 27.7815C32.64 27.7815 29.6257 26.3752 27.5576 24.2916L30.1014 20.7344Z" fill="white"/>
<path d="M48.8027 5.39844H60.348C64.5152 5.39844 66.6557 8.07664 66.6557 11.003C66.6557 13.7639 64.9392 15.6201 62.8814 16.044C65.2184 16.4111 67.1055 18.6912 67.1055 21.4521C67.1055 24.7456 64.9081 27.3618 60.7151 27.3618H48.8234V5.39844H48.8027ZM59.3346 14.2138C60.8857 14.2138 61.9197 13.1797 61.9197 11.763C61.9197 10.4136 60.9322 9.36921 59.3346 9.36921H53.4767V14.2138H59.3346ZM59.5052 23.3651C61.2786 23.3651 62.3489 22.3311 62.3489 20.78C62.3489 19.3995 61.3613 18.1949 59.5052 18.1949H53.4767V23.3651H59.5052Z" fill="white"/>
<path d="M70.626 5.39844H75.2792V27.3618H70.626V5.39844Z" fill="white"/>
<path d="M18.7272 0.5C19.3396 0.500021 19.9383 0.681326 20.4479 1.02107C20.9575 1.36081 21.3551 1.84378 21.5906 2.40912C21.8262 2.97447 21.8891 3.59688 21.7715 4.19792C21.6539 4.79897 21.361 5.35175 20.9297 5.78661C20.4984 6.22146 19.9481 6.51894 19.3481 6.64154C18.748 6.76414 18.1251 6.70638 17.5578 6.47555C16.9905 6.24471 16.5043 5.85112 16.1603 5.34439C15.8164 4.83765 15.6301 4.24044 15.625 3.62802C15.625 2.80288 15.951 2.01114 16.532 1.42526C17.1131 0.839385 17.9021 0.506819 18.7272 0.5V0.5Z" fill="white"/>
<path d="M10.0515 0.980469C10.575 0.980469 11.0868 1.13572 11.5222 1.4266C11.9575 1.71748 12.2968 2.13091 12.4972 2.61462C12.6975 3.09833 12.7499 3.63059 12.6478 4.14409C12.5457 4.65759 12.2935 5.12927 11.9233 5.49949C11.5531 5.8697 11.0814 6.12182 10.5679 6.22397C10.0544 6.32611 9.52216 6.27369 9.03845 6.07333C8.55474 5.87297 8.1413 5.53367 7.85043 5.09835C7.55955 4.66302 7.4043 4.15121 7.4043 3.62765C7.4043 2.92557 7.6832 2.25225 8.17964 1.75581C8.67608 1.25937 9.3494 0.980469 10.0515 0.980469Z" fill="white"/>
<path d="M18.7009 14.978C20.1629 14.978 21.3481 13.7928 21.3481 12.3308C21.3481 10.8688 20.1629 9.68359 18.7009 9.68359C17.2389 9.68359 16.0537 10.8688 16.0537 12.3308C16.0537 13.7928 17.2389 14.978 18.7009 14.978Z" fill="white"/>
<path d="M18.7006 17.877C19.1458 17.877 19.581 18.0088 19.9514 18.2558C20.3218 18.5028 20.6107 18.854 20.7817 19.265C20.9528 19.676 20.9983 20.1285 20.9126 20.5653C20.8269 21.0022 20.6137 21.4038 20.3 21.7197C19.9863 22.0356 19.5861 22.2515 19.1498 22.3402C18.7136 22.4289 18.2608 22.3865 17.8487 22.2183C17.4365 22.05 17.0834 21.7635 16.8338 21.3948C16.5843 21.0262 16.4494 20.5919 16.4464 20.1467C16.4436 19.8492 16.5 19.5541 16.6121 19.2785C16.7242 19.0029 16.8899 18.7523 17.0996 18.5412C17.3092 18.33 17.5587 18.1626 17.8335 18.0486C18.1084 17.9346 18.4031 17.8763 18.7006 17.877Z" fill="white"/>
<path d="M10.0511 14.5827C11.2961 14.5827 12.3054 13.5734 12.3054 12.3285C12.3054 11.0835 11.2961 10.0742 10.0511 10.0742C8.80613 10.0742 7.79688 11.0835 7.79688 12.3285C7.79688 13.5734 8.80613 14.5827 10.0511 14.5827Z" fill="white"/>
<path d="M2.25424 1.39844C2.70009 1.39844 3.13592 1.53065 3.50663 1.77835C3.87734 2.02604 4.16627 2.37811 4.33689 2.79002C4.50751 3.20193 4.55215 3.65518 4.46517 4.09246C4.37819 4.52974 4.16349 4.93141 3.84823 5.24667C3.53297 5.56193 3.1313 5.77662 2.69402 5.86361C2.25674 5.95059 1.80349 5.90594 1.39158 5.73533C0.979671 5.56471 0.627607 5.27578 0.379908 4.90507C0.132209 4.53436 0 4.09853 0 3.65268C0 3.05482 0.2375 2.48144 0.660252 2.05869C1.083 1.63594 1.65638 1.39844 2.25424 1.39844Z" fill="white"/>
</svg>
