<svg width="267" height="41" viewBox="0 0 267 41" fill="none" xmlns="http://www.w3.org/2000/svg">
<path fill-rule="evenodd" clip-rule="evenodd" d="M58.3843 30.6645C51.1761 30.6645 48.5317 26.3937 48.5317 19.8166C48.5317 14.1364 50.8776 9.13953 58.4696 9.13953C60.2183 9.13953 62.5215 9.48119 64.0996 9.99369L62.6495 14.0083C61.3273 13.4531 60.0051 12.8552 58.4696 12.8552C54.9295 12.8552 53.4793 15.076 53.4793 19.8166C53.4793 24.8562 54.8015 26.9916 58.2563 26.9916C60.0051 26.9916 61.1993 26.3083 62.8201 25.6677L64.2702 29.6822C62.5215 30.2806 60.8581 30.6645 58.3843 30.6645Z" fill="white"/>
<path fill-rule="evenodd" clip-rule="evenodd" d="M72.6727 30.4939C67.256 30.4939 65.166 26.9064 65.166 22.721C65.166 18.706 67.2986 15.1189 72.6727 15.1189C78.1321 15.1189 80.1368 18.5356 80.1368 22.721C80.1368 26.8637 78.0468 30.4939 72.6727 30.4939ZM72.6727 18.4074C70.796 18.4074 69.5591 19.2189 69.5591 22.721C69.5591 25.881 70.7107 27.2054 72.6727 27.2054C74.3361 27.2054 75.7437 26.2231 75.7437 22.721C75.7437 19.2189 74.6774 18.4074 72.6727 18.4074Z" fill="white"/>
<path fill-rule="evenodd" clip-rule="evenodd" d="M100.013 30.0239V20.8843C100.013 18.7489 99.373 18.4072 98.52 18.4072C96.8992 18.4072 95.8755 19.9874 95.3211 21.4395V30.0239H91.0132V20.8843C91.0132 18.6207 90.5441 18.4072 89.2645 18.4072C87.8997 18.4072 86.876 20.5426 86.4922 21.2687V30.067H82.1843V18.9197C82.1843 17.7239 81.8858 16.6562 81.7578 15.5884H85.7671L86.3642 17.3822C86.7907 16.7416 88.4968 15.1187 90.1176 15.1187C92.5914 15.1187 93.3164 15.4176 94.8092 17.1687C95.6196 15.8447 97.1551 15.1187 99.245 15.1187C102.7 15.1187 104.363 16.9551 104.363 20.7989V30.0239H100.013Z" fill="white"/>
<path fill-rule="evenodd" clip-rule="evenodd" d="M124.964 30.0239V20.8843C124.964 18.7489 124.324 18.4072 123.471 18.4072C121.85 18.4072 120.827 19.9874 120.272 21.4395V30.0239H115.964V20.8843C115.964 18.6207 115.495 18.4072 114.216 18.4072C112.851 18.4072 111.827 20.5426 111.443 21.2687V30.067H107.136V18.9197C107.136 17.7239 106.837 16.6562 106.709 15.5884H110.718L111.315 17.3822C111.742 16.7416 113.448 15.1187 115.069 15.1187C117.543 15.1187 118.268 15.4176 119.76 17.1687C120.571 15.8447 122.106 15.1187 124.196 15.1187C127.651 15.1187 129.314 16.9551 129.314 20.7989V30.0239H124.964Z" fill="white"/>
<path fill-rule="evenodd" clip-rule="evenodd" d="M135.883 24.6853C136.266 26.6072 137.503 27.291 138.996 27.291C140.276 27.291 141.939 26.8208 143.432 26.052L144.839 29.3405C143.091 30.152 140.788 30.4941 138.698 30.4941C133.878 30.4941 131.319 26.9916 131.319 22.977C131.319 19.6458 132.854 15.1614 138.484 15.1614C143.986 15.1614 145.735 18.0655 145.735 24.6853H135.883ZM138.527 18.4499C137.887 18.4499 135.968 18.6208 135.883 21.4395H141.427C141.214 19.0905 139.977 18.4499 138.527 18.4499Z" fill="white"/>
<path fill-rule="evenodd" clip-rule="evenodd" d="M156.611 19.0052C156.057 18.5355 155.545 18.4073 154.82 18.4073C153.242 18.4073 152.517 20.6709 152.218 21.4823V30.0667H147.911V18.8344C147.911 17.425 147.612 16.3573 147.484 15.6313H151.493L152.133 17.6386C152.645 16.7844 153.839 15.1615 155.289 15.1615C156.569 15.1615 157.464 15.3323 158.104 15.5459L156.611 19.0052Z" fill="white"/>
<path fill-rule="evenodd" clip-rule="evenodd" d="M165.654 30.4939C160.749 30.4939 158.147 27.3758 158.147 22.9345C158.147 18.2366 160.706 15.1616 165.739 15.1616C167.019 15.1616 169.663 15.8022 170.729 16.1866L169.236 19.7314C168.17 19.1762 166.763 18.4502 165.697 18.4502C163.692 18.4502 162.54 19.2189 162.54 22.8914C162.54 26.2658 164.033 27.12 165.654 27.12C166.635 27.12 168.127 26.4793 169.364 25.8387L170.857 29.3831C169.791 29.9814 166.763 30.4939 165.654 30.4939Z" fill="white"/>
<path fill-rule="evenodd" clip-rule="evenodd" d="M176.061 24.6853C176.444 26.6072 177.682 27.291 179.174 27.291C180.454 27.291 182.117 26.8208 183.61 26.052L185.018 29.3405C183.269 30.152 180.966 30.4941 178.876 30.4941C174.056 30.4941 171.497 26.9916 171.497 22.977C171.497 19.6458 173.032 15.1614 178.663 15.1614C184.165 15.1614 185.913 18.0655 185.913 24.6853H176.061ZM178.748 18.4499C178.108 18.4499 176.189 18.6208 176.103 21.4395H181.648C181.435 19.0905 180.155 18.4499 178.748 18.4499Z" fill="white"/>
<path fill-rule="evenodd" clip-rule="evenodd" d="M204.296 30.024H195.211V9.60938H203.273C206.983 9.60938 210.139 10.976 210.139 15.375C210.139 17.5104 208.732 18.8771 206.898 19.3469C209.414 19.6031 211.077 21.0983 211.077 24.0021C211.12 28.6573 207.836 30.024 204.296 30.024ZM203.273 13.2823H200.031V17.6812H203.741C204.723 17.6812 205.319 16.8271 205.319 15.375C205.277 14.7344 205.021 13.2823 203.273 13.2823ZM203.784 21.3542H200.031V26.351H204.126C205.106 26.351 206.216 25.6677 206.216 24.0021C206.216 22.1229 205.149 21.3542 203.784 21.3542Z" fill="white"/>
<path fill-rule="evenodd" clip-rule="evenodd" d="M222.892 30.0239C222.85 30.0239 222.338 28.6145 222.338 28.6999C221.528 29.3405 220.205 30.451 218.755 30.451C214.703 30.451 212.955 28.9135 212.955 26.2233C212.955 23.276 214.831 20.7989 220.973 20.7989H222.082V20.3291C222.082 19.6458 222.082 18.4499 220.461 18.4499C218.457 18.4499 216.409 19.0478 215.002 19.7312L213.509 16.1864C215.642 15.4603 218.414 15.1614 220.717 15.1614C224.044 15.1614 226.433 16.6135 226.433 19.7739V25.6249C226.433 26.778 226.859 28.4864 227.072 30.067H222.892V30.0239ZM222.082 23.9166H221.4C218.542 23.9166 217.433 24.6426 217.433 26.052C217.433 27.0774 218.713 27.1624 219.651 27.1624C220.547 27.1624 221.57 26.1801 222.125 25.5826V23.9166H222.082Z" fill="white"/>
<path fill-rule="evenodd" clip-rule="evenodd" d="M238.332 30.024V20.6281C238.332 19.6031 238.332 18.3646 236.583 18.3646C235.304 18.3646 234.451 19.8594 233.726 21.226V29.9813H229.418V18.6635C229.418 17.4677 229.162 16.5281 228.992 15.5885H233.001L233.641 17.3396C234.281 16.7417 235.517 15.076 237.394 15.076C241.83 15.076 242.683 17.5531 242.683 20.8844V29.9813H238.332V30.024Z" fill="white"/>
<path fill-rule="evenodd" clip-rule="evenodd" d="M254.242 30.024L249.72 22.9771V30.024H245.413V9.2677H249.72V21.1406L253.772 15.5885H258.421L253.815 21.8667L259.189 30.024H254.242Z" fill="white"/>
<path fill-rule="evenodd" clip-rule="evenodd" d="M223.447 37.4124V33.3551L221.911 37.4124H221.229L219.736 33.3551V37.4124H219.011V32.5441H220.205L221.613 36.3878L223.02 32.5441H224.172V37.4124H223.447Z" fill="white"/>
<path fill-rule="evenodd" clip-rule="evenodd" d="M225.665 35.9605C225.707 36.6011 225.963 36.9851 226.56 36.9851C226.901 36.9851 227.243 36.8574 227.584 36.6865L227.797 37.1986C227.413 37.3699 226.944 37.4553 226.475 37.4553C225.409 37.4553 224.939 36.6438 224.939 35.7038C224.939 34.8928 225.281 33.8678 226.475 33.8678C227.669 33.8678 228.01 34.6361 228.01 35.9174H225.665V35.9605ZM226.518 34.4226C226.134 34.4226 225.75 34.722 225.707 35.448H227.413C227.371 34.722 227.029 34.4226 226.518 34.4226Z" fill="white"/>
<path fill-rule="evenodd" clip-rule="evenodd" d="M232.873 37.4123V35.2342C232.873 34.7217 232.745 34.4228 232.233 34.4228C231.807 34.4228 231.508 34.8071 231.38 35.1488V37.4123H230.698V35.2342C230.698 34.6363 230.484 34.4228 230.058 34.4228C229.674 34.4228 229.376 34.8498 229.248 35.1065V37.4123H228.651V34.7649C228.651 34.4659 228.608 34.2524 228.565 33.9957H229.162L229.29 34.4659C229.418 34.2524 229.759 33.8676 230.229 33.8676C230.825 33.8676 231.082 34.0811 231.295 34.5082C231.508 34.2092 231.85 33.8676 232.318 33.8676C233.129 33.8676 233.513 34.2946 233.513 35.1919V37.3696H232.873V37.4123Z" fill="white"/>
<path fill-rule="evenodd" clip-rule="evenodd" d="M235.816 37.4979C235.389 37.4979 235.091 37.2416 234.963 37.0281L234.835 37.4124H234.238C234.28 36.9854 234.323 36.8145 234.323 36.3447V32.501H235.006V34.4656C235.176 34.2093 235.475 33.9108 235.944 33.9108C236.968 33.9108 237.352 34.7218 237.352 35.7041C237.309 36.6437 236.84 37.4979 235.816 37.4979ZM235.816 34.4229C235.347 34.4229 235.133 34.8499 234.963 35.1062V36.4733C235.091 36.7718 235.389 36.9854 235.688 36.9854C236.242 36.9854 236.584 36.601 236.584 35.7041C236.584 34.7218 236.242 34.4229 235.816 34.4229Z" fill="white"/>
<path fill-rule="evenodd" clip-rule="evenodd" d="M238.46 35.9605C238.503 36.6011 238.759 36.9851 239.356 36.9851C239.697 36.9851 240.038 36.8574 240.379 36.6865L240.593 37.1986C240.209 37.3699 239.739 37.4553 239.27 37.4553C238.204 37.4553 237.735 36.6438 237.735 35.7038C237.735 34.8928 238.076 33.8678 239.27 33.8678C240.465 33.8678 240.806 34.6361 240.806 35.9174H238.46V35.9605ZM239.313 34.4226C238.929 34.4226 238.545 34.722 238.503 35.448H240.209C240.166 34.722 239.825 34.4226 239.313 34.4226Z" fill="white"/>
<path fill-rule="evenodd" clip-rule="evenodd" d="M243.28 34.6364C243.152 34.5514 242.981 34.4228 242.768 34.4228C242.341 34.4228 242.213 35.0208 242.085 35.2343V37.4124H241.446V34.7649C241.446 34.4228 241.403 34.1666 241.36 33.9958H241.957L242.085 34.5937C242.213 34.3801 242.512 33.9108 242.896 33.9108C243.152 33.9108 243.323 33.953 243.536 34.0812L243.28 34.6364Z" fill="white"/>
<path fill-rule="evenodd" clip-rule="evenodd" d="M246.65 33.1416V34.6363H248.569V35.192H246.65V37.4124H245.882V32.5441H248.654V33.1416H246.65Z" fill="white"/>
<path fill-rule="evenodd" clip-rule="evenodd" d="M250.872 37.4124H249.507V32.5441H250.872C252.493 32.5441 253.175 33.1847 253.175 34.9353C253.175 36.7291 252.45 37.4124 250.872 37.4124ZM250.872 33.1416H250.232V36.8149H250.915C251.853 36.8149 252.365 36.3878 252.365 34.9784C252.408 33.4405 251.853 33.1416 250.872 33.1416Z" fill="white"/>
<mask id="mask0_103_12424" style="mask-type:luminance" maskUnits="userSpaceOnUse" x="0" y="-1" width="267" height="42">
<path fill-rule="evenodd" clip-rule="evenodd" d="M0 40.9251H266.823V-0.00012207H0V40.9251Z" fill="white"/>
</mask>
<g mask="url(#mask0_103_12424)">
<path fill-rule="evenodd" clip-rule="evenodd" d="M254.07 37.37H254.838V32.5439H254.07V37.37Z" fill="white"/>
<path fill-rule="evenodd" clip-rule="evenodd" d="M257.824 37.5408C256.288 37.5408 255.691 36.4731 255.691 34.9783C255.691 33.6116 256.203 32.4585 257.867 32.4585C258.293 32.4585 258.72 32.5439 259.104 32.6293L258.847 33.27C258.549 33.1414 258.207 33.0133 257.867 33.0133C256.8 33.0133 256.459 33.8252 256.459 34.9352C256.459 36.131 256.8 36.9002 257.824 36.9002C258.207 36.9002 258.506 36.7716 258.89 36.6012L259.146 37.2418C258.72 37.4554 258.335 37.5408 257.824 37.5408Z" fill="white"/>
<path fill-rule="evenodd" clip-rule="evenodd" d="M31.7699 6.19265C33.0921 5.33848 33.6893 4.52703 33.5187 3.92911C30.7463 1.92182 27.4621 0.640568 24.0073 0.170776C26.4385 1.19578 29.2535 3.07494 31.7699 6.19265Z" fill="white"/>
<path fill-rule="evenodd" clip-rule="evenodd" d="M25.9691 21.3968C30.0637 20.4145 33.1346 19.3895 35.4378 18.3645C34.5421 14.2645 33.0493 10.9763 31.3006 8.328C29.4665 9.43842 26.8648 10.4634 23.4526 11.3176C24.3483 14.1363 25.1161 17.0832 25.6279 19.603C25.7558 20.2009 25.8411 20.7993 25.9691 21.3968Z" fill="white"/>
<path fill-rule="evenodd" clip-rule="evenodd" d="M35.7787 20.4146C32.6225 21.9093 28.9545 23.0202 26.3101 23.6608C26.7792 26.9489 27.1204 30.4941 27.0778 33.5687C30.2767 32.7573 32.9637 31.6896 35.139 30.5791C36.0347 27.8458 36.3759 24.4718 35.7787 20.4146Z" fill="white"/>
<path fill-rule="evenodd" clip-rule="evenodd" d="M10.9131 22.4219C10.9984 22.7635 11.0837 23.1052 11.1263 23.4469C14.7517 23.3187 19.0169 22.8917 23.5807 21.9521C23.4527 21.3542 23.3674 20.7562 23.2394 20.1156C22.5997 16.9979 21.9172 14.2219 21.1922 11.8302C17.6947 12.5135 13.5148 12.7271 10.0174 12.4708C9.97475 15.4604 10.188 18.8344 10.9131 22.4219Z" fill="white"/>
<path fill-rule="evenodd" clip-rule="evenodd" d="M41.5369 16.2291C40.7265 17.4677 39.1911 18.6208 37.3144 19.6031C37.9115 23.4895 37.6129 26.8635 36.8452 29.6395C38.9352 28.401 40.3 27.2052 40.9398 26.3937C42.0061 23.2333 42.262 19.7739 41.5369 16.2291Z" fill="white"/>
<path fill-rule="evenodd" clip-rule="evenodd" d="M34.5849 4.74072C34.4142 5.59489 33.7745 6.49176 32.6655 7.38864C34.4996 9.99385 36.035 13.3678 36.9307 17.6813C39.3192 16.4428 40.5988 15.3324 41.1106 14.5636C39.959 10.5918 37.6131 7.21781 34.5849 4.74072Z" fill="white"/>
<path fill-rule="evenodd" clip-rule="evenodd" d="M10.1455 10.7626C13.1311 10.848 16.7992 10.6345 20.6378 9.90844C18.8038 4.22823 16.9698 1.02511 16.1168 0.598022C14.7092 0.939689 13.387 1.40948 12.1075 2.0074C11.2971 3.45948 10.4014 6.6199 10.1455 10.7626Z" fill="white"/>
<path fill-rule="evenodd" clip-rule="evenodd" d="M14.1547 36.7718C10.9132 36.5582 8.14081 36.003 6.39209 35.2343C9.46302 38.0961 13.387 40.018 17.6522 40.6586C16.5006 39.8045 15.3063 38.4374 14.1547 36.7718Z" fill="white"/>
<path fill-rule="evenodd" clip-rule="evenodd" d="M24.0072 24.1727C22.0879 24.4717 16.8843 25.2404 11.6382 25.4113C12.7045 29.1696 14.112 32.4581 15.5621 35.0634C18.4625 35.0206 21.7466 34.7217 25.0308 34.0811C24.9882 31.4331 24.647 28.1019 24.0072 24.1727Z" fill="white"/>
<path fill-rule="evenodd" clip-rule="evenodd" d="M34.1581 33.1844C32.1534 34.1667 29.7649 35.0632 26.9926 35.7469C26.8646 37.6257 26.5234 39.249 25.9263 40.274C27.3764 39.9324 28.7413 39.4199 30.0635 38.7792C31.471 37.498 33.0065 35.6188 34.1581 33.1844Z" fill="white"/>
<path fill-rule="evenodd" clip-rule="evenodd" d="M25.0733 36.1311C22.2156 36.6867 19.358 36.9003 16.6709 36.9003C17.8651 38.779 19.0594 40.1884 19.9124 40.9144C21.4052 40.9576 22.9407 40.8722 24.4762 40.6155C24.8174 39.9749 25.0306 38.4374 25.0733 36.1311Z" fill="white"/>
<path fill-rule="evenodd" clip-rule="evenodd" d="M22.8131 9.43854C26.0546 8.7125 28.5284 7.81562 30.3198 6.96146C27.2915 3.11771 23.8367 0.939583 21.5335 0C20.1687 0 18.8038 0.0854167 17.439 0.341667C19.4009 1.49479 21.2776 5.16771 22.8131 9.43854Z" fill="white"/>
<path fill-rule="evenodd" clip-rule="evenodd" d="M35.9923 32.2022C35.1819 34.1241 34.1583 35.747 33.0493 37.0706C35.907 35.0633 38.2102 32.4158 39.7456 29.3831C38.7647 30.3231 37.5278 31.3049 35.9923 32.2022Z" fill="white"/>
<path fill-rule="evenodd" clip-rule="evenodd" d="M8.43926 22.9771C7.67153 19.176 7.50093 15.5031 7.79949 12.2573C5.41099 11.9156 3.57696 11.3604 2.76658 10.549C0.719296 14.0937 -0.304346 18.1937 0.0795196 22.4646C0.889903 22.9344 4.00348 23.4473 8.56722 23.4896C8.52457 23.3187 8.48192 23.1479 8.43926 22.9771Z" fill="white"/>
<path fill-rule="evenodd" clip-rule="evenodd" d="M3.61963 9.22501C3.79024 9.86563 5.45365 10.3781 7.97011 10.6344C8.39663 7.34584 9.29231 4.65522 10.4013 2.90417C7.67155 4.52709 5.36835 6.70522 3.61963 9.22501Z" fill="white"/>
<path fill-rule="evenodd" clip-rule="evenodd" d="M9.03641 25.4115C5.62427 25.3688 2.42539 25.0271 0.335449 24.0448C0.378101 24.2583 0.420753 24.4292 0.420753 24.6427C1.14583 28.1875 2.7666 31.3052 5.02714 33.8677C5.96548 34.3802 8.99376 34.9354 13.0457 35.0635C11.4249 32.4156 10.0174 29.1271 9.03641 25.4115Z" fill="white"/>
<path fill-rule="evenodd" clip-rule="evenodd" d="M262.772 9.39585H261.748V12.8125H261.321V9.39585H260.298V9.01147H262.814L262.772 9.39585Z" fill="white"/>
<path fill-rule="evenodd" clip-rule="evenodd" d="M266.312 12.8553L266.099 10.0792C266.099 9.82297 266.056 9.43859 266.056 9.43859C266.056 9.4813 265.971 9.78026 265.885 10.0365L265.075 12.898H264.691L263.923 10.2073C263.838 9.82297 263.753 9.56672 263.753 9.4813C263.753 9.52401 263.71 9.9938 263.71 10.2073L263.497 12.898H263.07L263.412 9.09692H264.094L264.776 11.574C264.862 11.9157 264.904 12.2146 264.947 12.2146C264.947 12.1719 264.99 11.9157 265.075 11.6167L265.8 9.09692H266.482L266.824 12.898H266.312V12.8553Z" fill="white"/>
</g>
</svg>
