<svg width="107" height="25" viewBox="0 0 107 25" fill="none" xmlns="http://www.w3.org/2000/svg">
<g clip-path="url(#clip0_6150_6532)">
<path d="M32.1729 7.39996V13.671C32.1729 15.3483 30.8126 16.7086 29.1353 16.7086C27.4579 16.7086 26.0976 15.3483 26.0976 13.671V7.39996H23.8066V13.5775C23.8066 16.5201 26.1926 18.9061 29.1353 18.9061C32.0779 18.9061 34.4639 16.5201 34.4639 13.5775V7.39996H32.1729Z" fill="#0E680E"/>
<path d="M10.6776 0.14856V14.7449C10.6776 18.4225 7.69698 21.4032 4.01939 21.4032C3.54308 21.4032 3.07991 21.352 2.63281 21.257C4.33791 23.0235 6.72973 24.1237 9.3787 24.1237C14.5583 24.1237 18.756 19.9245 18.756 14.7464V0.14856H10.6776Z" fill="#4A9D2D"/>
<path d="M4.01948 18.7848C1.79861 18.7848 0 16.9848 0 14.7639V2.73175H8.04042V14.7639C8.04042 16.9848 6.24035 18.7848 4.01948 18.7848Z" fill="#0E680E"/>
<path d="M47.7732 12.9755C47.7732 16.5026 45.1666 18.8608 42.2459 18.8608C40.5612 18.8608 39.1688 18.2764 38.2015 17.2653V22.5589H35.8652V7.40434H38.2015V8.68426C39.1673 7.67318 40.5597 7.08875 42.2459 7.08875C45.1666 7.08875 47.7732 9.47034 47.7732 12.974M45.5041 12.974C45.5041 10.6378 43.9086 9.15474 41.8645 9.15474C40.0221 9.15474 38.203 10.6378 38.203 12.974C38.203 15.3103 40.0221 16.7934 41.8645 16.7934C43.9086 16.7934 45.5041 15.3337 45.5041 12.974Z" fill="#0E680E"/>
<path d="M69.4342 7.35909L69.2764 9.60626C69.0967 9.58434 68.8279 9.58434 68.6248 9.58434C65.7946 9.58434 64.4007 11.5612 64.4007 14.6164V18.5482H62.0645V7.40438H64.4007V9.78597C65.2993 8.30295 66.7151 7.26996 68.6467 7.26996C68.917 7.26996 69.1406 7.26996 69.4328 7.36055" fill="#0E680E"/>
<path d="M81.3557 18.5467H79.0194V17.2668C78.0536 18.2779 76.6597 18.8623 74.9751 18.8623C72.0544 18.8623 69.4492 16.5041 69.4492 12.977C69.4492 9.44995 72.0544 7.09174 74.9751 7.09174C76.6597 7.09174 78.0536 7.67618 79.0194 8.68726V7.40733H81.3557V18.5467ZM79.0194 12.9756C79.0194 10.6393 77.2003 9.15627 75.3579 9.15627C73.3138 9.15627 71.7183 10.6393 71.7183 12.9756C71.7183 15.3119 73.3138 16.7949 75.3579 16.7949C77.2003 16.7949 79.0194 15.3353 79.0194 12.9756Z" fill="#0E680E"/>
<path d="M103.723 15.3615C102.935 16.5494 101.813 16.8401 100.707 16.8401C99.0678 16.8401 97.5614 15.604 97.3378 13.538H106.369V12.7286C106.256 9.38121 103.786 7.09021 100.798 7.09021C97.652 7.09021 95.0234 9.44842 95.0234 12.9989C95.0234 16.5494 97.6739 18.8623 100.707 18.8623C103.176 18.8623 105.153 17.6949 106.075 15.3615H103.724H103.723ZM100.796 9.15766C102.323 9.15766 103.604 10.0562 103.964 11.8753H97.4036C97.763 10.0782 99.3351 9.15766 100.796 9.15766Z" fill="#0E680E"/>
<path d="M91.8372 0.123718V8.36285C90.8262 7.61039 89.555 7.18667 88.1816 7.18667C84.9146 7.18667 82.248 9.55365 82.248 13.0267C82.248 16.4997 84.9146 18.8886 88.1816 18.8886C91.4486 18.8886 93.9602 16.6297 94.1034 13.3116H94.1107V0.123718H91.8372ZM88.1816 16.8577C86.2485 16.8577 84.5142 15.3469 84.5142 13.0252C84.5142 10.7035 86.2471 9.19276 88.1816 9.19276C90.1161 9.19276 91.827 10.7035 91.827 13.0252C91.827 15.3469 90.0708 16.8577 88.1816 16.8577Z" fill="#0E680E"/>
<path d="M58.3163 7.40434V8.68426C57.3505 7.67318 55.9566 7.08875 54.272 7.08875C51.3512 7.08875 48.7461 9.47034 48.7461 12.974C48.7461 16.4778 51.3527 18.8594 54.272 18.8594C55.9566 18.8594 57.3505 18.2749 58.3163 17.2638V17.5371C58.3163 19.6031 56.9911 21.3666 54.8783 21.3666C52.7656 21.3666 51.9941 20.4856 51.1628 19.1823L49.3671 20.3716C50.2656 22.0343 51.623 23.4793 54.8783 23.4793C58.3601 23.4793 60.6526 20.8304 60.6526 17.5838V7.40434H58.3163ZM54.6548 16.7948C52.6107 16.7948 51.0152 15.3352 51.0152 12.9755C51.0152 10.6158 52.6107 9.1562 54.6548 9.1562C56.4972 9.1562 58.3163 10.6392 58.3163 12.9755C58.3163 15.3118 56.4958 16.7948 54.6548 16.7948Z" fill="#0E680E"/>
</g>
<defs>
<clipPath id="clip0_6150_6532">
<rect width="106.368" height="24" fill="white" transform="translate(0 0.123718)"/>
</clipPath>
</defs>
</svg>
