<svg width="142" height="32" viewBox="0 0 142 32" fill="none" xmlns="http://www.w3.org/2000/svg">
<g clip-path="url(#clip0_6515_76632)">
<path d="M42.8979 9.70169V18.0631C42.8979 20.2995 41.0842 22.1132 38.8478 22.1132C36.6113 22.1132 34.7976 20.2995 34.7976 18.0631V9.70169H31.7429V17.9384C31.7429 21.8619 34.9242 25.0432 38.8478 25.0432C42.7713 25.0432 45.9526 21.8619 45.9526 17.9384V9.70169H42.8979Z" fill="#0E680E"/>
<path d="M14.2369 0.0331116V19.4949C14.2369 24.3984 10.2627 28.3726 5.35927 28.3726C4.72418 28.3726 4.10663 28.3044 3.5105 28.1778C5.78397 30.5331 8.97306 32 12.505 32C19.4111 32 25.0081 26.4011 25.0081 19.4969V0.0331116H14.2369Z" fill="#4A9D2D"/>
<path d="M5.35931 24.8814C2.39815 24.8814 0 22.4813 0 19.5202V3.47733H10.7206V19.5202C10.7206 22.4813 8.32047 24.8814 5.35931 24.8814Z" fill="#0E680E"/>
<path d="M63.6981 17.1358C63.6981 21.8386 60.2226 24.9828 56.3283 24.9828C54.0821 24.9828 52.2255 24.2036 50.9359 22.8555V29.9136H47.8208V9.70754H50.9359V11.4141C52.2236 10.066 54.0801 9.28674 56.3283 9.28674C60.2226 9.28674 63.6981 12.4622 63.6981 17.1338M60.6726 17.1338C60.6726 14.0188 58.5453 12.0414 55.8198 12.0414C53.3632 12.0414 50.9378 14.0188 50.9378 17.1338C50.9378 20.2489 53.3632 22.2262 55.8198 22.2262C58.5453 22.2262 60.6726 20.28 60.6726 17.1338Z" fill="#0E680E"/>
<path d="M92.5791 9.64716L92.3687 12.6434C92.129 12.6142 91.7706 12.6142 91.4998 12.6142C87.7263 12.6142 85.8677 15.25 85.8677 19.3235V24.5659H82.7527V9.70755H85.8677V12.883C87.0658 10.9056 88.9536 9.52832 91.529 9.52832C91.8894 9.52832 92.1875 9.52832 92.5771 9.6491" fill="#0E680E"/>
<path d="M108.474 24.5641H105.359V22.8575C104.071 24.2056 102.213 24.9849 99.9665 24.9849C96.0722 24.9849 92.5986 21.8406 92.5986 17.1378C92.5986 12.435 96.0722 9.29071 99.9665 9.29071C102.213 9.29071 104.071 10.07 105.359 11.4181V9.71151H108.474V24.5641ZM105.359 17.1358C105.359 14.0208 102.933 12.0434 100.477 12.0434C97.7514 12.0434 95.6241 14.0208 95.6241 17.1358C95.6241 20.2509 97.7514 22.2283 100.477 22.2283C102.933 22.2283 105.359 20.2821 105.359 17.1358Z" fill="#0E680E"/>
<path d="M138.298 20.317C137.248 21.9008 135.752 22.2885 134.277 22.2885C132.091 22.2885 130.083 20.6404 129.785 17.8857H141.826V16.8065C141.676 12.3433 138.382 9.28864 134.398 9.28864C130.203 9.28864 126.699 12.4329 126.699 17.1669C126.699 21.9008 130.233 24.9847 134.277 24.9847C137.569 24.9847 140.205 23.4282 141.434 20.317H138.3H138.298ZM134.396 12.0452C136.432 12.0452 138.14 13.2433 138.619 15.6688H129.872C130.351 13.2726 132.448 12.0452 134.396 12.0452Z" fill="#0E680E"/>
<path d="M122.45 0V10.9855C121.102 9.98222 119.407 9.41726 117.575 9.41726C113.219 9.41726 109.664 12.5732 109.664 17.2039C109.664 21.8347 113.219 25.0198 117.575 25.0198C121.931 25.0198 125.28 22.008 125.471 17.5838H125.481V0H122.45ZM117.575 22.3119C114.998 22.3119 112.686 20.2976 112.686 17.202C112.686 14.1064 114.996 12.092 117.575 12.092C120.155 12.092 122.436 14.1064 122.436 17.202C122.436 20.2976 120.094 22.3119 117.575 22.3119Z" fill="#0E680E"/>
<path d="M77.7539 9.70754V11.4141C76.4662 10.066 74.6077 9.28674 72.3615 9.28674C68.4672 9.28674 64.9937 12.4622 64.9937 17.1338C64.9937 21.8054 68.4691 24.9809 72.3615 24.9809C74.6077 24.9809 76.4662 24.2016 77.7539 22.8535V23.2178C77.7539 25.9725 75.987 28.3239 73.17 28.3239C70.353 28.3239 69.3243 27.1492 68.2159 25.4114L65.8216 26.9972C67.0197 29.2142 68.8295 31.1409 73.17 31.1409C77.8124 31.1409 80.869 27.6089 80.869 23.2802V9.70754H77.7539ZM72.8719 22.2282C70.1465 22.2282 68.0191 20.282 68.0191 17.1358C68.0191 13.9895 70.1465 12.0433 72.8719 12.0433C75.3285 12.0433 77.7539 14.0207 77.7539 17.1358C77.7539 20.2508 75.3265 22.2282 72.8719 22.2282Z" fill="#0E680E"/>
</g>
<defs>
<clipPath id="clip0_6515_76632">
<rect width="141.824" height="32" fill="white"/>
</clipPath>
</defs>
</svg>
