<svg width="64" height="64" viewBox="0 0 64 64" fill="none" xmlns="http://www.w3.org/2000/svg">
<path fill-rule="evenodd" clip-rule="evenodd" d="M32 64C49.6731 64 64 49.6731 64 32C64 14.3269 49.6731 0 32 0C14.3269 0 0 14.3269 0 32C0 49.6731 14.3269 64 32 64ZM43.2898 34.3103C42.0245 35.9382 40.5572 36.8389 38.8877 37.0125C37.2183 37.1861 35.5666 36.6501 33.9328 35.4045C33.0949 34.7657 32.3798 34.0978 31.7875 33.4007C31.5995 33.1794 31.4281 32.9612 31.2735 32.7461C31.0321 32.4105 30.8199 32.0548 30.6078 31.6994C30.3361 31.2442 30.0646 30.7892 29.7323 30.377C29.2405 29.7586 28.6521 29.2189 27.9669 28.7579C26.9902 28.1008 26.0761 27.8649 25.2244 28.05C24.3851 28.2173 23.6769 28.7211 23.0999 29.5616C22.658 30.2053 22.399 30.8153 22.3231 31.3916C22.2471 31.9679 22.3403 32.5927 22.6027 33.2659C22.8651 33.9391 23.284 34.7568 23.8594 35.7191C24.4955 36.7482 24.9612 37.7151 25.2565 38.6196C25.5788 39.5161 25.6731 40.403 25.5396 41.2804C25.4207 42.1676 25.0175 43.1119 24.33 44.1133C23.1638 45.8121 21.7525 46.7971 20.096 47.0681C18.4395 47.3391 16.7585 46.9009 15.053 45.7535C14.1783 45.165 13.4245 44.5403 12.7915 43.8791C12.3693 43.4381 12.0214 43.0064 11.7477 42.5839C11.5057 42.2104 11.5487 41.7317 11.8006 41.3647C12.332 40.5906 13.5368 40.6466 14.1114 41.3892C14.2004 41.5042 14.2929 41.6207 14.389 41.7385C15.0165 42.5005 15.7458 43.1611 16.5767 43.7201C17.7429 44.5047 18.8078 44.8159 19.7715 44.6539C20.7497 44.5016 21.5642 43.9517 22.2148 43.0039C22.6444 42.378 22.8973 41.7769 22.9732 41.2007C23.0492 40.6244 22.9402 39.976 22.6464 39.2555C22.3794 38.5269 21.9133 37.6382 21.2481 36.5894C20.3267 35.1068 19.818 33.7059 19.7221 32.3866C19.6408 31.0771 20.1096 29.6803 21.1285 28.196C21.8283 27.1768 22.635 26.4517 23.5488 26.0208C24.4749 25.5721 25.4447 25.401 26.4582 25.5078C27.4863 25.6244 28.4887 26.0112 29.4654 26.6683C30.3254 27.2469 31.0451 27.8749 31.6244 28.5522C31.814 28.7739 31.9919 28.9975 32.1583 29.2232C32.1682 29.2367 32.1883 29.2369 32.1986 29.2237C32.2103 29.2086 32.2339 29.2115 32.2417 29.229C32.2916 29.3405 32.3454 29.4539 32.4032 29.5692C32.6407 29.9192 32.8508 30.2739 33.0333 30.6332C33.0351 30.6368 33.0342 30.6411 33.0311 30.6436C33.0278 30.6464 33.027 30.6512 33.0293 30.6548C33.1765 30.8828 33.3365 31.1169 33.5095 31.3569C34.0904 32.1545 34.7789 32.8568 35.5748 33.4636C36.692 34.3152 37.7363 34.6884 38.7078 34.5831C39.6932 34.4883 40.5389 33.9869 41.2448 33.0788C41.7109 32.479 41.9991 31.8937 42.1093 31.3228C42.2194 30.7519 42.1494 30.0981 41.8991 29.3615C41.676 28.6184 41.2638 27.7038 40.6625 26.6177C39.8312 25.0835 39.407 23.655 39.39 22.3321C39.3869 21.0199 39.9381 19.6527 41.0436 18.2305C41.8027 17.2538 42.6512 16.5771 43.5889 16.2005C44.5399 15.8067 45.518 15.6927 46.5232 15.8587C47.5424 16.0353 48.5198 16.4803 49.4554 17.1935C50.2794 17.8217 50.9602 18.4908 51.4979 19.2009C51.807 19.609 52.0799 20.0211 52.3167 20.4372C52.6172 20.9655 52.4314 21.6209 51.9384 21.9764C51.2762 22.4538 50.3419 22.2034 49.9053 21.5136C49.7781 21.3125 49.6432 21.112 49.5007 20.912C49.0468 20.2658 48.4916 19.6925 47.8353 19.1921C46.8997 18.4788 46.0013 18.1897 45.1403 18.3246C44.2926 18.4424 43.5557 18.9041 42.9297 19.7094C42.4503 20.3263 42.1554 20.9201 42.0453 21.4911C41.9351 22.062 41.9909 22.6912 42.2126 23.3788C42.4344 24.0663 42.8037 24.9073 43.3206 25.9017C43.8941 26.9665 44.3012 27.9591 44.5421 28.8795C44.8103 29.7934 44.8515 30.6845 44.666 31.5527C44.4944 32.4315 44.0357 33.3508 43.2898 34.3103Z" fill="#91E9D4"/>
</svg>
